<svg width="227" height="81" viewBox="0 0 227 81" fill="none" xmlns="http://www.w3.org/2000/svg">
<path d="M33.117 27.2899L33.6871 24.3446L33.673 24.3419L33.659 24.3393L33.117 27.2899ZM34.819 28.0669L32.6977 30.1883L32.7319 30.2225L32.7672 30.2556L34.819 28.0669ZM34.708 31.1379L32.8491 28.7833L32.8179 28.8079L32.7875 28.8333L34.708 31.1379ZM32.562 31.5819L32.3294 34.5729L32.3376 34.5735L32.562 31.5819ZM27.345 31.2489L27.1653 34.2436L27.1964 34.2454L27.2274 34.2466L27.345 31.2489ZM22.461 31.1009L22.4976 28.1012L20.0103 28.0708L19.5199 30.5095L22.461 31.1009ZM19.945 44.7909L16.9858 44.2977L16.9846 44.3048L16.9835 44.3119L19.945 44.7909ZM19.094 50.6369L22.0671 51.0378L22.0677 51.0334L19.094 50.6369ZM18.502 55.9649L15.5099 55.7473L15.5091 55.7585L18.502 55.9649ZM17.614 57.6299L19.304 60.1086L19.3417 60.083L19.3785 60.0561L17.614 57.6299ZM13.766 57.5929L15.7591 55.3507H15.7591L13.766 57.5929ZM13.359 53.1159L10.3892 52.6917L10.3859 52.7144L10.383 52.7372L13.359 53.1159ZM14.025 48.7869L11.0726 48.2545L11.0684 48.278L11.0645 48.3016L14.025 48.7869ZM14.654 44.8649L11.6849 44.4352L11.6825 44.4518L11.6803 44.4684L14.654 44.8649ZM15.579 39.2779L12.6299 38.7274L15.579 39.2779ZM16.615 34.0239L19.5516 34.6376L19.5542 34.6249L19.5567 34.6123L16.615 34.0239ZM16.874 32.7659L19.8097 33.384L19.8128 33.3691L19.8157 33.3543L16.874 32.7659ZM17.207 31.1379L20.1439 31.7498L20.9204 28.0229L17.1152 28.1393L17.207 31.1379ZM11.509 31.7299L10.8306 28.8076L11.509 31.7299ZM8.549 33.0989L6.42768 30.9776H6.42768L8.549 33.0989ZM8.438 37.7239L11.0427 36.2355L11.0027 36.1654L10.9589 36.0976L8.438 37.7239ZM7.735 39.6109L9.49951 42.0371L9.50887 42.0303L9.51817 42.0235L7.735 39.6109ZM4.997 39.8329L7.01502 37.6131L6.97803 37.5795L6.93994 37.5471L4.997 39.8329ZM3.776 38.0569L0.9966 39.1861L1.00292 39.2016L1.00942 39.2171L3.776 38.0569ZM5.33 30.3609L7.36982 32.5607L7.37135 32.5593L5.33 30.3609ZM11.583 27.5489L10.965 24.6133L10.9597 24.6144L11.583 27.5489ZM28.862 26.8089L28.6777 29.8033L28.6805 29.8034L28.862 26.8089ZM32.5469 30.2353C32.6466 30.2546 32.7221 30.2741 32.7768 30.2908C32.8316 30.3076 32.861 30.3201 32.8701 30.3243C32.889 30.3329 32.8093 30.2999 32.6977 30.1883L36.9403 25.9456C35.987 24.9923 34.7689 24.554 33.6871 24.3446L32.5469 30.2353ZM32.7672 30.2556C32.7194 30.2108 32.6192 30.1006 32.5346 29.9155C32.4472 29.7243 32.411 29.5283 32.411 29.3619H38.411C38.411 27.9544 37.8055 26.7546 36.8708 25.8783L32.7672 30.2556ZM32.411 29.3619C32.411 29.4916 32.3911 29.4506 32.4458 29.3123C32.5099 29.1505 32.6409 28.9477 32.8491 28.7833L36.5669 33.4926C37.9955 32.3648 38.411 30.7386 38.411 29.3619H32.411ZM32.7875 28.8333C33.0314 28.63 33.2301 28.5888 33.2307 28.5887C33.2325 28.5883 33.1987 28.5953 33.1208 28.5986C33.0434 28.602 32.9334 28.6014 32.7864 28.5903L32.3376 34.5735C33.5868 34.6672 35.2813 34.5653 36.6286 33.4426L32.7875 28.8333ZM32.7946 28.591C30.5606 28.4172 28.7773 28.3028 27.4626 28.2512L27.2274 34.2466C28.4287 34.2937 30.1235 34.4013 32.3294 34.5729L32.7946 28.591ZM27.5247 28.2543C26.2234 28.1762 24.5421 28.1261 22.4976 28.1012L22.4244 34.1007C24.4252 34.1251 25.9999 34.1736 27.1653 34.2436L27.5247 28.2543ZM19.5199 30.5095C18.6006 35.081 17.7559 39.6771 16.9858 44.2977L22.9042 45.2841C23.6634 40.7288 24.4961 36.1982 25.4021 31.6924L19.5199 30.5095ZM16.9835 44.3119C16.7066 46.0237 16.4189 48.001 16.1203 50.2404L22.0677 51.0334C22.3611 48.8329 22.6407 46.9128 22.9065 45.27L16.9835 44.3119ZM16.1209 50.2361C15.8211 52.4597 15.6149 54.3036 15.5099 55.7473L21.4941 56.1825C21.5864 54.913 21.7749 53.2049 22.0671 51.0378L16.1209 50.2361ZM15.5091 55.7585C15.5095 55.7534 15.519 55.6502 15.5959 55.5059C15.6757 55.3564 15.7787 55.2552 15.8495 55.2037L19.3785 60.0561C20.6931 59.1001 21.3893 57.7026 21.4949 56.1713L15.5091 55.7585ZM15.924 55.1513C15.924 55.1513 15.9242 55.1511 15.9245 55.151C15.9248 55.1508 15.9246 55.1509 15.9237 55.1513C15.9223 55.152 15.9152 55.1552 15.8998 55.1596C15.8697 55.1681 15.7932 55.1849 15.653 55.1849V61.1849C16.9189 61.1849 18.1853 60.8714 19.304 60.1086L15.924 55.1513ZM15.653 55.1849C15.4821 55.1849 15.4338 55.1635 15.4688 55.1745C15.4883 55.1806 15.529 55.1954 15.5829 55.2252C15.6376 55.2554 15.6985 55.2968 15.7591 55.3507L11.7729 59.8352C12.9409 60.8734 14.3778 61.1849 15.653 61.1849V55.1849ZM15.7591 55.3507C15.8485 55.4302 15.9518 55.5585 16.0239 55.7267C16.0936 55.8892 16.1 56.0092 16.1 56.0389H10.1C10.1 57.4604 10.6332 58.8221 11.7729 59.8352L15.7591 55.3507ZM16.1 56.0389C16.1 55.6542 16.1631 54.8452 16.335 53.4947L10.383 52.7372C10.2096 54.1 10.1 55.2397 10.1 56.0389H16.1ZM16.3288 53.5402C16.523 52.181 16.7418 50.7584 16.9855 49.2723L11.0645 48.3016C10.8148 49.8248 10.5897 51.2882 10.3892 52.6917L16.3288 53.5402ZM16.9774 49.3193C17.2541 47.7846 17.4719 46.4299 17.6277 45.2614L11.6803 44.4684C11.5401 45.52 11.3385 46.78 11.0726 48.2545L16.9774 49.3193ZM17.6231 45.2947C17.8886 43.4601 18.1903 41.6381 18.5281 39.8284L12.6299 38.7274C12.2771 40.6178 11.9621 42.5204 11.6849 44.4352L17.6231 45.2947ZM18.5281 39.8284C18.8699 37.9972 19.2111 36.267 19.5516 34.6376L13.6784 33.4103C13.3282 35.0862 12.9788 36.8587 12.6299 38.7274L18.5281 39.8284ZM19.5567 34.6123C19.6283 34.2544 19.7125 33.8452 19.8097 33.384L13.9384 32.1479C13.8381 32.624 13.7497 33.0535 13.6733 33.4356L19.5567 34.6123ZM19.8157 33.3543C19.9126 32.8702 20.0219 32.3355 20.1439 31.7498L14.2701 30.5261C14.1454 31.1244 14.0328 31.675 13.9323 32.1776L19.8157 33.3543ZM17.1152 28.1393C14.6176 28.2158 12.4924 28.4219 10.8306 28.8076L12.1874 34.6522C13.2882 34.3967 14.9617 34.2081 17.2988 34.1365L17.1152 28.1393ZM10.8306 28.8076C9.23899 29.1771 7.6047 29.8006 6.42768 30.9776L10.6703 35.2203C10.6546 35.236 10.7288 35.1575 10.9923 35.0356C11.253 34.915 11.6399 34.7793 12.1874 34.6522L10.8306 28.8076ZM6.42768 30.9776C5.2188 32.1865 4.698 33.7297 4.698 35.3189H10.698C10.698 35.1748 10.7199 35.1327 10.712 35.1532C10.7085 35.1622 10.7016 35.177 10.6909 35.1934C10.6803 35.2098 10.6717 35.2189 10.6703 35.2203L6.42768 30.9776ZM4.698 35.3189C4.698 36.7836 5.13873 38.1438 5.91711 39.3503L10.9589 36.0976C10.7506 35.7747 10.698 35.5316 10.698 35.3189H4.698ZM5.83327 39.2123C5.67503 38.9354 5.586 38.6079 5.586 38.2789H11.586C11.586 37.5553 11.3983 36.8578 11.0427 36.2355L5.83327 39.2123ZM5.586 38.2789C5.586 37.8718 5.71827 37.5469 5.84516 37.3483C5.95523 37.176 6.03453 37.1373 5.95183 37.1984L9.51817 42.0235C10.4495 41.3351 11.586 40.1071 11.586 38.2789H5.586ZM5.97049 37.1847C5.90987 37.2288 5.89195 37.2301 5.91694 37.2214C5.92873 37.2173 5.94652 37.2123 5.96898 37.2085C5.9915 37.2046 6.01345 37.2029 6.033 37.2029V43.2029C7.34189 43.2029 8.51543 42.7528 9.49951 42.0371L5.97049 37.1847ZM6.033 37.2029C6.11854 37.2029 6.27448 37.2159 6.46851 37.2852C6.66884 37.3568 6.85761 37.47 7.01502 37.6131L2.97898 42.0528C3.88191 42.8736 4.98207 43.2029 6.033 43.2029V37.2029ZM6.93994 37.5471C6.89224 37.5066 6.73059 37.3451 6.54258 36.8968L1.00942 39.2171C1.46275 40.2981 2.11509 41.3206 3.05406 42.1188L6.93994 37.5471ZM6.5554 36.9278C6.40157 36.5491 6.295 36.053 6.295 35.3929H0.295C0.295 36.7062 0.509097 37.9861 0.9966 39.1861L6.5554 36.9278ZM6.295 35.3929C6.295 34.0086 6.70987 33.1727 7.36982 32.5607L3.29018 28.1611C1.2368 30.0652 0.295 32.584 0.295 35.3929H6.295ZM7.37135 32.5593C8.20174 31.7882 9.69817 31.0162 12.2063 30.4835L10.9597 24.6144C7.89316 25.2657 5.22092 26.3683 3.28865 28.1626L7.37135 32.5593ZM12.201 30.4846C14.7332 29.9515 18.1075 29.6609 22.387 29.6609V23.6609C17.8852 23.6609 14.0568 23.9624 10.965 24.6133L12.201 30.4846ZM22.387 29.6609C25.0744 29.6609 27.1632 29.7101 28.6777 29.8033L29.0463 23.8146C27.3542 23.7105 25.1262 23.6609 22.387 23.6609V29.6609ZM28.6805 29.8034C30.2241 29.897 31.5168 30.0462 32.575 30.2406L33.659 24.3393C32.2999 24.0897 30.7559 23.9182 29.0435 23.8144L28.6805 29.8034ZM60.9878 42.3859L58.8665 44.5073L58.917 44.5577L58.9698 44.6058L60.9878 42.3859ZM60.8028 45.0499L58.4602 43.1758L58.4309 43.2124L58.4028 43.2499L60.8028 45.0499ZM59.0268 45.8269L59.1018 48.826L59.1098 48.8258L59.1177 48.8256L59.0268 45.8269ZM53.7728 45.3829L54.4336 42.4566L52.0956 41.9287L51.0646 44.0924L53.7728 45.3829ZM47.4088 54.5589L49.5086 56.7016L49.5088 56.7014L47.4088 54.5589ZM34.2368 53.7079L37.0013 52.5427L34.2368 53.7079ZM33.2748 29.9169L36.2281 30.4443L36.2295 30.4364L36.2309 30.4286L33.2748 29.9169ZM34.1998 27.3269L31.9641 25.3265L31.9576 25.3338L34.1998 27.3269ZM38.6768 29.5469L41.636 30.0401L41.6461 29.9798L41.6537 29.919L38.6768 29.5469ZM38.4918 50.2299L35.6284 51.1248L35.6351 51.1463L35.6422 51.1678L38.4918 50.2299ZM45.5218 50.4889L47.8108 52.4282V52.4282L45.5218 50.4889ZM49.6658 43.7919L52.3831 45.0633L53.511 42.6528L51.2521 41.2456L49.6658 43.7919ZM46.2618 40.1659L43.5874 41.5251L43.5919 41.5341L43.5965 41.543L46.2618 40.1659ZM46.0028 30.0649L43.2717 28.8235L43.2665 28.835L43.2614 28.8465L46.0028 30.0649ZM48.4818 27.0309L46.8865 24.4903L46.873 24.4988L46.8596 24.5074L48.4818 27.0309ZM55.7338 27.7339L53.3962 29.6142L53.4085 29.6295L53.4209 29.6446L55.7338 27.7339ZM55.2898 41.6829L52.4741 40.6477L51.2283 44.0362L54.7876 44.6406L55.2898 41.6829ZM51.1828 40.0919L49.3889 42.4965L52.6699 44.9442L54.016 41.0785L51.1828 40.0919ZM52.2188 30.9899L49.5902 32.4357L49.606 32.4645L49.6226 32.493L52.2188 30.9899ZM49.4808 31.4339L52.1113 32.8764L52.1208 32.859L52.1302 32.8414L49.4808 31.4339ZM59.7668 45.0159C59.8476 45.0159 59.7823 45.0264 59.6276 44.9795C59.4611 44.9291 59.1608 44.8016 58.8665 44.5073L63.1091 40.2646C62.0347 39.1902 60.6536 39.0159 59.7668 39.0159V45.0159ZM58.9698 44.6058C58.8015 44.4527 58.6406 44.2413 58.5302 43.9804C58.422 43.7246 58.3948 43.4988 58.3948 43.3479H64.3948C64.3948 42.1804 63.9542 41.0283 63.0058 40.1661L58.9698 44.6058ZM58.3948 43.3479C58.3948 43.3559 58.3945 43.323 58.4133 43.2689C58.4323 43.2142 58.4558 43.1814 58.4602 43.1758L63.1454 46.924C63.9726 45.8901 64.3948 44.6593 64.3948 43.3479H58.3948ZM58.4028 43.2499C58.5436 43.0623 58.7241 42.9334 58.8789 42.8657C59.0124 42.8073 59.0558 42.8247 58.936 42.8283L59.1177 48.8256C60.529 48.7828 62.1209 48.2925 63.2028 46.8499L58.4028 43.2499ZM58.9519 42.8279C57.1652 42.8725 55.6689 42.7355 54.4336 42.4566L53.112 48.3093C54.9355 48.721 56.9418 48.88 59.1018 48.826L58.9519 42.8279ZM51.0646 44.0924C49.4397 47.5023 47.511 50.258 45.3088 52.4165L49.5088 56.7014C52.2894 53.9759 54.6033 50.6142 56.4811 46.6734L51.0646 44.0924ZM45.309 52.4163C43.1832 54.4996 41.4161 55.1849 39.9718 55.1849V61.1849C43.5102 61.1849 46.7011 59.4529 49.5086 56.7016L45.309 52.4163ZM39.9718 55.1849C39.3167 55.1849 38.8569 55.0106 38.4601 54.7009C38.0207 54.3579 37.4958 53.7159 37.0013 52.5427L31.4724 54.8731C32.2359 56.6846 33.2958 58.2811 34.768 59.4305C36.2829 60.6131 38.0616 61.1849 39.9718 61.1849V55.1849ZM37.0013 52.5427C35.9618 50.0764 35.3498 46.4927 35.3498 41.6089H29.3498C29.3498 46.8878 29.9959 51.3701 31.4724 54.8731L37.0013 52.5427ZM35.3498 41.6089C35.3498 37.4047 35.6488 33.6884 36.2281 30.4443L30.3215 29.3896C29.6675 33.0522 29.3498 37.1306 29.3498 41.6089H35.3498ZM36.2309 30.4286C36.3237 29.8923 36.4198 29.5348 36.4978 29.3164C36.5854 29.0712 36.6006 29.1417 36.4421 29.32L31.9576 25.3338C30.9537 26.4632 30.5471 28.0862 30.3188 29.4053L36.2309 30.4286ZM36.4356 29.3273C36.3428 29.431 36.2459 29.508 36.16 29.5618C36.0762 29.6143 36.014 29.6378 35.9903 29.6457C35.9676 29.6533 35.9786 29.6471 36.0341 29.6394C36.0896 29.6317 36.1792 29.6239 36.3088 29.6239V23.6239C34.9481 23.6239 33.2086 23.9356 31.9641 25.3266L36.4356 29.3273ZM36.3088 29.6239C36.7594 29.6239 36.5372 29.7306 36.1795 29.4217C35.9911 29.2589 35.8657 29.0622 35.7994 28.8905C35.7401 28.7368 35.7508 28.664 35.7508 28.7329H41.7508C41.7508 27.4435 41.3571 25.9654 40.1012 24.8807C38.9294 23.8687 37.4863 23.6239 36.3088 23.6239V29.6239ZM35.7508 28.7329C35.7508 28.6926 35.7523 28.675 35.7514 28.6909C35.7506 28.7038 35.7487 28.731 35.7446 28.7758C35.7364 28.8666 35.7222 28.9973 35.7 29.1748L41.6537 29.919C41.701 29.5401 41.7508 29.0934 41.7508 28.7329H35.7508ZM35.7176 29.0537C34.9569 33.6183 34.5668 37.8075 34.5668 41.6089H40.5668C40.5668 38.2077 40.9168 34.3556 41.636 30.0401L35.7176 29.0537ZM34.5668 41.6089C34.5668 45.4799 34.8753 48.7149 35.6284 51.1248L41.3553 49.3351C40.875 47.7983 40.5668 45.286 40.5668 41.6089H34.5668ZM35.6422 51.1678C36.3933 53.4499 38.0437 56.1529 41.3408 56.1529V50.1529C41.4253 50.1529 41.5445 50.1718 41.6664 50.2257C41.7836 50.2774 41.837 50.3319 41.8334 50.3282C41.8247 50.3193 41.7613 50.2503 41.6656 50.0745C41.5703 49.8994 41.4578 49.6456 41.3415 49.2921L35.6422 51.1678ZM41.3408 56.1529C44.007 56.1529 46.1696 54.3654 47.8108 52.4282L43.2329 48.5497C42.6024 49.2939 42.0986 49.7258 41.736 49.9569C41.3837 50.1813 41.2677 50.1529 41.3408 50.1529V56.1529ZM47.8108 52.4282C49.5267 50.4028 51.0418 47.93 52.3831 45.0633L46.9486 42.5206C45.7739 45.0312 44.5263 47.023 43.2329 48.5497L47.8108 52.4282ZM51.2521 41.2456C50.1752 40.5748 49.4279 39.7581 48.9271 38.7889L43.5965 41.543C44.6251 43.5338 46.1471 45.1344 48.0796 46.3383L51.2521 41.2456ZM48.9363 38.8068C48.4165 37.784 48.1148 36.5354 48.1148 34.9859H42.1148C42.1148 37.3338 42.5778 39.5386 43.5874 41.5251L48.9363 38.8068ZM48.1148 34.9859C48.1148 33.323 48.3699 32.1258 48.7443 31.2834L43.2614 28.8465C42.4518 30.6681 42.1148 32.7516 42.1148 34.9859H48.1148ZM48.7339 31.3063C49.1625 30.3635 49.6467 29.8485 50.1041 29.5545L46.8596 24.5074C45.2449 25.5454 44.0765 27.053 43.2717 28.8235L48.7339 31.3063ZM50.0771 29.5716C50.6478 29.2133 51.2642 29.0319 51.9968 29.0319V23.0319C50.1642 23.0319 48.4372 23.5166 46.8865 24.4903L50.0771 29.5716ZM51.9968 29.0319C52.7544 29.0319 53.1056 29.253 53.3962 29.6142L58.0715 25.8537C56.5367 23.9456 54.3966 23.0319 51.9968 23.0319V29.0319ZM53.4209 29.6446C53.7829 30.0827 54.1398 30.8816 54.1398 32.3959H60.1398C60.1398 29.9636 59.5595 27.6545 58.0467 25.8233L53.4209 29.6446ZM54.1398 32.3959C54.1398 34.801 53.6159 37.542 52.4741 40.6477L58.1056 42.7181C59.4304 39.1145 60.1398 35.6642 60.1398 32.3959H54.1398ZM54.7876 44.6406C56.2976 44.897 57.9631 45.0159 59.7668 45.0159V39.0159C58.2159 39.0159 56.8967 38.9129 55.7921 38.7253L54.7876 44.6406ZM45.8518 34.7269C45.8518 37.8315 46.8894 40.6318 49.3889 42.4965L52.9767 37.6874C52.3682 37.2334 51.8518 36.457 51.8518 34.7269H45.8518ZM54.016 41.0785C55.0284 38.171 55.6258 35.5272 55.6258 33.2469H49.6258C49.6258 34.568 49.2613 36.4875 48.3497 39.1054L54.016 41.0785ZM55.6258 33.2469C55.6258 32.0849 55.4978 30.6659 54.8151 29.4868L49.6226 32.493C49.5287 32.3309 49.5421 32.2742 49.5717 32.4381C49.599 32.5893 49.6258 32.8492 49.6258 33.2469H55.6258ZM54.8475 29.5442C54.1753 28.3221 52.911 27.2499 51.1088 27.2499V33.2499C50.7845 33.2499 50.4088 33.1545 50.0737 32.9311C49.7648 32.7251 49.6266 32.5019 49.5902 32.4357L54.8475 29.5442ZM51.1088 27.2499C48.9547 27.2499 47.566 28.6439 46.8315 30.0265L52.1302 32.8414C52.1938 32.7216 52.1653 32.8278 51.9668 32.9721C51.8629 33.0478 51.7271 33.1224 51.5637 33.1758C51.4 33.2292 51.2434 33.2499 51.1088 33.2499V27.2499ZM46.8504 29.9914C46.0804 31.3956 45.8518 33.0792 45.8518 34.7269H51.8518C51.8518 33.5134 52.0426 33.0016 52.1113 32.8764L46.8504 29.9914Z" fill="#2C2C2C"/>
<path d="M155.153 56.7358C154.321 56.8472 153.588 56.7923 152.954 56.5712C152.562 56.4119 152.35 56.193 152.321 55.9146C152.291 55.6362 152.336 55.4065 152.458 55.2256C152.577 55.0214 152.763 54.9023 153.018 54.8682C153.249 54.8373 153.594 54.8852 154.054 55.012C154.559 55.1326 154.87 55.1852 154.985 55.1697C155.425 55.1109 155.798 54.8727 156.105 54.4551C156.433 54.0112 156.667 53.4621 156.808 52.8078C157.1 51.5921 157.196 50.5202 157.097 49.5922C156.99 48.5946 156.716 47.5723 156.275 46.5252C155.855 45.4518 155.323 44.4287 154.679 43.4559L154.005 42.4165C153.302 41.3339 152.753 40.4778 152.357 39.8483C151.984 39.2158 151.64 38.5205 151.324 37.7627C150.857 36.6955 150.568 35.6399 150.456 34.5959C150.367 33.7607 150.421 32.9533 150.619 32.1737C150.84 31.3911 151.212 30.7059 151.735 30.1181C152.254 29.4839 152.941 29.1096 153.797 28.9951C154.213 28.9394 154.631 29.0128 155.052 29.2154C155.47 29.3948 155.78 29.6593 155.981 30.0088L155.47 30.8186C154.869 30.899 154.405 30.8434 154.08 30.6516C153.669 30.7537 153.321 31.012 153.037 31.4265C152.774 31.8148 152.586 32.2517 152.474 32.7374C152.382 33.1968 152.36 33.6469 152.407 34.0877C152.502 34.9693 152.715 35.8586 153.045 36.7557C153.397 37.6265 153.813 38.4415 154.293 39.2009L157.244 43.748C157.727 44.5306 158.14 45.4285 158.483 46.4415C158.826 47.4546 159.054 48.4831 159.166 49.5272C159.33 51.0584 159.114 52.5463 158.519 53.9909C158.2 54.7396 157.75 55.3529 157.168 55.8308C156.588 56.332 155.917 56.6336 155.153 56.7358ZM172.647 53.6183C171.861 53.7235 171.262 51.8621 170.852 48.034L170.674 46.0458L170.537 44.4403L170.525 44.3359L170.488 43.9879C170.491 43.7992 170.479 43.5773 170.452 43.322C170.447 43.2756 170.406 43.2223 170.329 43.162C170.252 43.1017 170.211 43.0483 170.206 43.0019L170.203 42.9671C170.092 43.029 169.886 43.08 169.586 43.1203C169.285 43.1605 168.91 43.1636 168.461 43.1296C168.319 43.125 167.943 43.1165 167.332 43.1041L167.761 47.1062C167.826 47.7094 167.962 48.656 168.171 49.9459C168.377 51.2126 168.514 52.1592 168.581 52.7856C168.619 53.1336 168.559 53.4476 168.401 53.7276C168.243 54.0075 168.014 54.1676 167.713 54.2078C167.274 54.2666 166.916 53.8792 166.639 53.0456C166.359 52.1887 166.143 51.0527 165.992 49.6375L165.759 46.8093C165.697 46.0174 165.619 45.1807 165.525 44.2991L165.461 43.7075L165.409 43.2203C165.369 42.8491 165.331 42.607 165.296 42.4941L165.277 42.3201L165.165 40.2877C165.07 39.4061 164.895 38.1 164.639 36.3692C164.383 34.6385 164.208 33.3323 164.113 32.4507C164.083 32.1723 164.15 31.9163 164.312 31.6828C164.475 31.4492 164.695 31.3139 164.972 31.2767C165.712 31.1777 166.157 31.8242 166.306 33.2162L166.7 37.5407C166.793 38.8461 166.925 40.2992 167.097 41.9001C167.456 41.9696 168.087 41.9441 168.989 41.8234L170.273 41.6516C170.304 41.5062 170.312 41.3639 170.297 41.2247C170.178 40.1111 169.932 38.4732 169.559 36.3109C169.178 34.291 168.919 32.643 168.782 31.367C168.755 31.1118 168.825 30.8906 168.993 30.7034C169.181 30.49 169.414 30.3647 169.691 30.3275C169.853 30.3059 170.091 30.3329 170.404 30.4087L170.731 30.5061C171.084 33.8006 171.672 38.1815 172.493 43.6491L173.749 52.4118C173.784 52.7366 173.684 53.0088 173.45 53.2284C173.238 53.445 172.971 53.5749 172.647 53.6183ZM184.931 52.6452C184.33 52.7257 183.753 52.6027 183.202 52.2764C182.654 51.9733 182.183 51.5186 181.789 50.9123C180.967 49.5868 180.385 48.0997 180.044 46.451C179.667 44.9012 179.399 43.3955 179.243 41.9339C179.213 41.6555 179.2 41.4219 179.203 41.2332L179.136 40.6068C179.123 40.4908 179.105 40.4344 179.082 40.4375L179.015 39.8111L178.788 37.3704C178.732 36.6249 178.698 35.4293 178.685 33.7836C178.681 32.6545 178.832 31.5401 179.136 30.4404C179.248 29.9548 179.419 29.5789 179.648 29.3128C179.875 29.0236 180.151 28.8573 180.475 28.814C181.4 28.6902 182.251 28.7528 183.028 29.0018C183.803 29.2275 184.477 29.608 185.051 30.1431C185.576 30.6612 186.046 31.3278 186.462 32.1429C186.875 32.9348 187.202 33.797 187.443 34.7297C187.686 35.6855 187.867 36.7087 187.983 37.7991L188.013 38.0775C188.09 38.7967 188.172 39.4447 188.257 40.0217L188.505 42.0006C189.221 48.6823 188.03 52.2305 184.931 52.6452ZM184.635 51.2021C185.052 51.1464 185.416 50.933 185.728 50.5618C186.038 50.1673 186.254 49.6677 186.377 49.063C186.689 47.821 186.818 46.5093 186.764 45.1282C186.753 43.9295 186.701 42.9009 186.609 42.0425C186.497 40.9985 186.269 39.6405 185.926 37.9686C185.595 36.2007 185.383 34.876 185.288 33.9944L185.221 33.368C185.08 32.4925 184.697 31.7672 184.073 31.1918C183.471 30.6134 182.777 30.3768 181.991 30.482C181.204 30.5872 180.733 31.1093 180.575 32.0481C180.421 32.7983 180.405 33.7418 180.527 34.8786C180.574 35.3194 180.626 35.689 180.681 35.9875L180.782 36.9272L180.884 38.5373C180.89 39.0307 180.924 39.5674 180.986 40.1474C181.121 41.4002 181.289 42.6368 181.49 43.8571C181.769 45.5847 182.182 47.2474 182.729 48.8451C183.283 50.5124 183.918 51.2981 184.635 51.2021ZM198.688 50.8749C198.226 50.9368 197.746 50.2949 197.25 48.9493C196.817 47.76 196.4 46.2744 195.998 44.4926C195.616 42.6845 195.172 40.4024 194.665 37.6462C194.356 35.8521 193.986 33.9365 193.556 31.8996C193.21 30.2044 192.895 29.1287 192.612 28.6724C192.775 28.227 193.088 27.9733 193.551 27.9114C194.291 27.8124 194.743 28.5285 194.907 30.0597C195.101 31.8693 195.628 34.4817 196.487 37.8967C197.343 41.2886 197.891 43.7686 198.129 45.337L198.176 44.1306C198.24 42.5452 198.28 41.0573 198.295 39.6668C198.331 38.25 198.321 36.7335 198.265 35.1172C198.235 33.3091 198.127 31.5351 197.94 29.795L198.832 29.2521C199.133 29.2119 199.384 29.2606 199.587 29.3982C199.81 29.5096 199.936 29.7044 199.966 29.9828L199.996 30.2612C200.505 31.5109 200.959 32.8975 201.357 34.421C201.776 35.9182 202.19 37.6984 202.599 39.7617C202.909 41.3439 203.231 42.8187 203.566 44.1859C203.672 41.0183 203.481 37.1608 202.993 32.6136C202.916 31.8944 202.914 31.0004 202.987 29.9316C203.034 28.8427 203.022 27.9619 202.95 27.2891C202.858 27.0896 202.802 26.897 202.782 26.7114C202.723 26.1546 203.04 25.8298 203.733 25.7369C204.011 25.6998 204.238 25.74 204.415 25.8576C204.592 25.9751 204.694 26.1615 204.721 26.4167L204.777 26.9387C204.815 27.2867 204.812 27.5929 204.77 27.8574L204.789 28.0314C204.588 28.9996 204.552 30.087 204.681 31.2934L204.954 33.8338C205.111 35.2954 205.171 37.4995 205.135 40.4459C205.069 43.3259 205.11 45.4619 205.259 46.8539L205.327 47.4803C205.384 48.0139 205.375 48.474 205.299 48.8607C205.21 49.3433 204.899 49.6202 204.367 49.6913C203.997 49.7409 203.696 49.6635 203.463 49.4594C203.25 49.2289 203.124 48.9281 203.084 48.5569C202.883 46.6777 202.425 44.268 201.711 41.3277C201.358 40.01 200.993 38.6822 200.615 37.3443L199.668 33.7645C199.648 34.4497 199.672 35.1171 199.742 35.7667C199.881 37.0659 199.973 38.7951 200.017 40.9543C200.061 43.1135 199.994 45.2286 199.818 47.2996C199.62 49.6089 199.243 50.8006 198.688 50.8749Z" fill="#FBC700"/>
<path d="M152.954 56.5712L152.757 57.037L152.769 57.0415L152.78 57.0455L152.954 56.5712ZM152.458 55.2256L152.869 55.4988L152.878 55.4851L152.886 55.4708L152.458 55.2256ZM154.054 55.012L153.91 55.4959L153.919 55.4982L153.927 55.5002L154.054 55.012ZM156.105 54.4551L155.708 54.1627L155.707 54.1635L156.105 54.4551ZM156.808 52.8078L156.324 52.7018L156.321 52.7135L156.808 52.8078ZM156.275 46.5252L155.81 46.7192L155.815 46.7307L156.275 46.5252ZM154.679 43.4559L154.26 43.7375L154.262 43.7412L154.679 43.4559ZM154.005 42.4165L153.585 42.6982L153.585 42.6982L154.005 42.4165ZM152.357 39.8483L151.926 40.1122L151.93 40.1183L151.934 40.1242L152.357 39.8483ZM151.324 37.7627L151.784 37.5588L151.781 37.5511L151.324 37.7627ZM150.619 32.1737L150.139 32.048L150.136 32.0613L150.619 32.1737ZM151.735 30.1181L152.103 30.4475L152.11 30.4393L152.117 30.4308L151.735 30.1181ZM155.052 29.2154L154.827 29.6688L154.837 29.6734L154.847 29.6776L155.052 29.2154ZM155.981 30.0088L156.4 30.2701L156.565 30.0097L156.414 29.7488L155.981 30.0088ZM155.47 30.8186L155.523 31.3157L155.76 31.2841L155.889 31.0798L155.47 30.8186ZM154.08 30.6516L154.34 30.2171L154.168 30.1161L153.972 30.1648L154.08 30.6516ZM153.037 31.4266L152.629 31.1491L152.627 31.1511L153.037 31.4266ZM152.474 32.7374L151.988 32.6358L151.987 32.6433L151.985 32.6509L152.474 32.7374ZM153.045 36.7557L152.578 36.9406L152.58 36.9476L152.583 36.9545L153.045 36.7557ZM154.293 39.2009L153.871 39.4778L153.874 39.4826L154.293 39.2009ZM157.244 43.748L157.669 43.4757L157.663 43.4664L157.244 43.748ZM158.483 46.4415L158.011 46.6141L158.483 46.4415ZM158.519 53.9909L158.976 54.1784L158.978 54.173L158.519 53.9909ZM157.168 55.8308L156.858 55.4453L156.848 55.454L157.168 55.8308ZM155.1 56.2386C154.326 56.3421 153.674 56.2874 153.128 56.0968L152.78 57.0455C153.501 57.2972 154.315 57.3522 155.207 57.2329L155.1 56.2386ZM153.15 56.1053C152.829 55.9747 152.818 55.8635 152.816 55.8483L151.825 55.9809C151.883 56.5226 152.295 56.8491 152.757 57.037L153.15 56.1053ZM152.816 55.8483C152.795 55.6521 152.833 55.5523 152.869 55.4988L152.047 54.9524C151.84 55.2608 151.786 55.6203 151.825 55.9809L152.816 55.8483ZM152.886 55.4708C152.916 55.4195 152.955 55.381 153.071 55.3654L152.964 54.3711C152.572 54.4236 152.237 54.6233 152.029 54.9803L152.886 55.4708ZM153.071 55.3654C153.197 55.3485 153.461 55.372 153.91 55.4959L154.197 54.5281C153.727 54.3984 153.301 54.3261 152.964 54.3711L153.071 55.3654ZM153.927 55.5002C154.184 55.5616 154.4 55.6077 154.571 55.6366C154.719 55.6616 154.896 55.686 155.039 55.6669L154.932 54.6726C154.958 54.6692 154.96 54.6725 154.918 54.6689C154.882 54.6658 154.831 54.6591 154.76 54.6472C154.62 54.6235 154.428 54.583 154.18 54.5238L153.927 55.5002ZM155.039 55.6669C155.637 55.5869 156.127 55.2581 156.503 54.7467L155.707 54.1635C155.469 54.4873 155.213 54.635 154.932 54.6726L155.039 55.6669ZM156.503 54.7475C156.882 54.233 157.142 53.6125 157.295 52.9021L156.321 52.7135C156.192 53.3117 155.983 53.7893 155.708 54.1627L156.503 54.7475ZM157.293 52.9138C157.594 51.659 157.7 50.5267 157.592 49.5259L156.601 49.6585C156.693 50.5138 156.606 51.5252 156.324 52.7018L157.293 52.9138ZM157.592 49.5259C157.479 48.474 157.192 47.4049 156.735 46.3197L155.815 46.7307C156.24 47.7396 156.5 48.7152 156.601 49.6585L157.592 49.5259ZM156.739 46.3312C156.307 45.2252 155.759 44.1716 155.096 43.1706L154.262 43.7412C154.887 44.6858 155.403 45.6784 155.811 46.7192L156.739 46.3312ZM155.098 43.1742L154.424 42.1349L153.585 42.6982L154.26 43.7375L155.098 43.1742ZM154.424 42.1349C153.722 41.053 153.174 40.1991 152.78 39.5725L151.934 40.1242C152.331 40.7565 152.882 41.6148 153.585 42.6982L154.424 42.1349ZM152.787 39.5845C152.427 38.9732 152.092 38.2983 151.784 37.5588L150.863 37.9666C151.187 38.7428 151.541 39.4583 151.926 40.1122L152.787 39.5845ZM151.781 37.5511C151.332 36.5246 151.058 35.5178 150.952 34.5296L149.961 34.6622C150.079 35.762 150.382 36.8664 150.867 37.9743L151.781 37.5511ZM150.952 34.5296C150.868 33.7507 150.919 33.0041 151.101 32.2862L150.136 32.0613C149.922 32.9025 149.865 33.7706 149.961 34.6622L150.952 34.5296ZM151.098 32.2994C151.298 31.5892 151.634 30.9744 152.103 30.4475L151.368 29.7887C150.79 30.4374 150.381 31.193 150.139 32.0481L151.098 32.2994ZM152.117 30.4308C152.547 29.9052 153.113 29.5909 153.85 29.4923L153.743 28.498C152.769 28.6283 151.961 29.0627 151.354 29.8054L152.117 30.4308ZM153.85 29.4923C154.159 29.4509 154.482 29.5023 154.827 29.6688L155.276 28.762C154.781 28.5234 154.267 28.4279 153.743 28.498L153.85 29.4923ZM154.847 29.6776C155.182 29.8214 155.406 30.0211 155.549 30.2689L156.414 29.7488C156.154 29.2975 155.758 28.9682 155.257 28.7533L154.847 29.6776ZM155.563 29.7476L155.051 30.5573L155.889 31.0798L156.4 30.2701L155.563 29.7476ZM155.417 30.3214C154.865 30.3952 154.531 30.3296 154.34 30.2171L153.82 31.0861C154.28 31.3571 154.872 31.4028 155.523 31.3157L155.417 30.3214ZM153.972 30.1648C153.418 30.3023 152.971 30.6494 152.629 31.1491L153.445 31.704C153.671 31.3746 153.919 31.2051 154.188 31.1384L153.972 30.1648ZM152.627 31.1511C152.326 31.5957 152.114 32.0923 151.988 32.6358L152.959 32.839C153.058 32.4111 153.221 32.0339 153.446 31.702L152.627 31.1511ZM151.985 32.6509C151.884 33.1583 151.859 33.66 151.912 34.154L152.903 34.0214C152.861 33.6338 152.88 33.2352 152.962 32.8239L151.985 32.6509ZM151.912 34.154C152.011 35.0795 152.234 36.0086 152.578 36.9406L153.513 36.5708C153.195 35.7086 152.993 34.859 152.903 34.0214L151.912 34.154ZM152.583 36.9545C152.945 37.8513 153.374 38.6927 153.871 39.4778L154.716 38.9241C154.252 38.1904 153.849 37.4016 153.508 36.5569L152.583 36.9545ZM153.874 39.4826L156.825 44.0297L157.663 43.4664L154.712 38.9193L153.874 39.4826ZM156.819 44.0203C157.279 44.7672 157.678 45.6307 158.011 46.6141L158.955 46.269C158.602 45.2263 158.174 44.2941 157.669 43.4758L156.819 44.0203ZM158.011 46.6141C158.343 47.5937 158.562 48.5866 158.67 49.5935L159.661 49.4608C159.545 48.3797 159.31 47.3155 158.955 46.269L158.011 46.6141ZM158.67 49.5935C158.825 51.0404 158.622 52.4429 158.059 53.8089L158.978 54.173C159.606 52.6497 159.835 51.0764 159.661 49.4608L158.67 49.5935ZM158.061 53.8035C157.773 54.4816 157.371 55.0248 156.858 55.4455L157.477 56.2162C158.129 55.6809 158.627 54.9975 158.976 54.1784L158.061 53.8035ZM156.848 55.454C156.346 55.8886 155.767 56.1493 155.1 56.2386L155.207 57.2329C156.066 57.1179 156.83 56.7754 157.487 56.2077L156.848 55.454ZM170.852 48.034L170.355 48.0916L170.356 48.1003L170.852 48.034ZM170.674 46.0458L170.177 46.1013L170.177 46.1034L170.674 46.0458ZM170.537 44.4403L171.033 44.3848L171.032 44.374L170.537 44.4403ZM170.488 43.9879L169.99 43.992L169.989 44.0233L169.992 44.0542L170.488 43.9879ZM170.329 43.162L170.016 43.5604L170.016 43.5604L170.329 43.162ZM170.203 42.9671L170.698 42.9008L170.619 42.1665L169.969 42.5301L170.203 42.9671ZM168.461 43.1296L168.51 42.6295L168.5 42.6287L168.489 42.6283L168.461 43.1296ZM167.332 43.1041L167.354 42.6027L166.774 42.591L166.836 43.1705L167.332 43.1041ZM168.171 49.9459L167.679 50.0387L167.679 50.0392L168.171 49.9459ZM168.401 53.7276L167.969 53.4888L168.401 53.7276ZM166.639 53.0456L166.165 53.2129L166.166 53.2154L166.639 53.0456ZM165.992 49.6375L165.495 49.6915L165.496 49.7038L165.992 49.6375ZM165.759 46.8093L165.262 46.861L165.262 46.8634L165.759 46.8093ZM165.296 42.4941L164.8 42.5604L164.805 42.6096L164.82 42.6566L165.296 42.4941ZM165.277 42.3201L164.779 42.3606L164.78 42.3736L164.782 42.3864L165.277 42.3201ZM165.165 40.2877L165.662 40.2472L165.662 40.2343L165.66 40.2214L165.165 40.2877ZM164.639 36.3692L164.146 36.4554L164.639 36.3692ZM164.312 31.6828L163.906 31.402L164.312 31.6828ZM166.306 33.2162L166.803 33.1579L166.802 33.1499L166.306 33.2162ZM166.7 37.5407L167.197 37.4922L167.196 37.4824L166.7 37.5407ZM167.097 41.9001L166.601 41.9664L166.64 42.3247L166.991 42.3927L167.097 41.9001ZM170.273 41.6516L170.326 42.1488L170.683 42.101L170.76 41.7459L170.273 41.6516ZM169.559 36.3109L170.05 36.2131L170.049 36.2054L169.559 36.3109ZM168.993 30.7034L169.359 31.0339L169.362 31.0309L168.993 30.7034ZM170.404 30.4087L170.556 29.9275L170.544 29.9239L170.532 29.9209L170.404 30.4087ZM170.731 30.5061L171.227 30.4398L171.192 30.1167L170.884 30.0249L170.731 30.5061ZM172.493 43.6491L172.986 43.5651L172.985 43.5618L172.493 43.6491ZM173.749 52.4118L174.245 52.3455L174.244 52.3366L174.243 52.3278L173.749 52.4118ZM173.45 53.2285L173.115 52.8654L173.107 52.8733L173.098 52.8817L173.45 53.2285ZM172.594 53.1211C172.636 53.1154 172.603 53.1585 172.486 53.0106C172.366 52.8582 172.226 52.5804 172.083 52.1358C171.8 51.2548 171.552 49.8736 171.347 47.9677L170.356 48.1003C170.562 50.0225 170.819 51.486 171.134 52.4664C171.29 52.9526 171.473 53.3596 171.699 53.6463C171.929 53.9374 172.265 54.1737 172.7 54.1154L172.594 53.1211ZM171.348 47.9764L171.17 45.9882L170.177 46.1034L170.355 48.0916L171.348 47.9764ZM171.17 45.9903L171.033 44.3848L170.04 44.4958L170.177 46.1013L171.17 45.9903ZM171.032 44.374L171.021 44.2696L170.03 44.4022L170.041 44.5066L171.032 44.374ZM171.021 44.2696L170.984 43.9216L169.992 44.0542L170.03 44.4022L171.021 44.2696ZM170.986 43.9838C170.99 43.7683 170.976 43.5247 170.947 43.2557L169.956 43.3884C169.982 43.6298 169.992 43.8301 169.99 43.992L170.986 43.9838ZM170.947 43.2557C170.932 43.1103 170.866 43.0018 170.815 42.9346C170.761 42.8649 170.699 42.8084 170.642 42.7635L170.016 43.5604C170.036 43.5759 170.032 43.5762 170.02 43.5599C170.009 43.546 169.967 43.4874 169.956 43.3884L170.947 43.2557ZM170.642 42.7635C170.622 42.7481 170.626 42.7478 170.638 42.7641C170.649 42.7779 170.691 42.8365 170.702 42.9356L169.711 43.0682C169.726 43.2137 169.792 43.3222 169.843 43.3894C169.897 43.459 169.959 43.5155 170.016 43.5604L170.642 42.7635ZM170.702 42.9356L170.698 42.9008L169.707 43.0334L169.711 43.0682L170.702 42.9356ZM169.969 42.5301C169.971 42.5289 169.942 42.544 169.858 42.565C169.779 42.5846 169.671 42.6045 169.532 42.6231L169.639 43.6174C169.938 43.5774 170.232 43.5183 170.436 43.4041L169.969 42.5301ZM169.532 42.6231C169.278 42.6571 168.941 42.662 168.51 42.6295L168.411 43.6297C168.879 43.6652 169.292 43.6639 169.639 43.6174L169.532 42.6231ZM168.489 42.6283C168.344 42.6236 167.964 42.615 167.354 42.6027L167.309 43.6056C167.922 43.618 168.294 43.6264 168.432 43.6309L168.489 42.6283ZM166.836 43.1705L167.265 47.1725L168.257 47.0399L167.827 43.0378L166.836 43.1705ZM167.265 47.1725C167.332 47.7899 167.47 48.7476 167.679 50.0387L168.663 49.8531C168.455 48.5643 168.32 47.6289 168.257 47.0399L167.265 47.1725ZM167.679 50.0392C167.885 51.3042 168.02 52.2397 168.086 52.8519L169.077 52.7193C169.008 52.0787 168.87 51.1211 168.663 49.8526L167.679 50.0392ZM168.086 52.8519C168.113 53.1062 168.068 53.3116 167.969 53.4888L168.833 53.9663C169.049 53.5836 169.124 53.161 169.077 52.7193L168.086 52.8519ZM167.969 53.4888C167.886 53.6353 167.794 53.6928 167.66 53.7107L167.767 54.705C168.234 54.6424 168.6 54.3797 168.833 53.9663L167.969 53.4888ZM167.66 53.7107C167.632 53.7144 167.581 53.7195 167.484 53.6147C167.373 53.4942 167.241 53.2642 167.112 52.8757L166.166 53.2154C166.313 53.6606 166.499 54.0411 166.746 54.308C167.008 54.5907 167.355 54.76 167.767 54.705L167.66 53.7107ZM167.113 52.8783C166.848 52.0672 166.637 50.9691 166.487 49.5711L165.496 49.7038C165.65 51.1363 165.87 52.3103 166.165 53.2129L167.113 52.8783ZM166.488 49.5834L166.255 46.7553L165.262 46.8634L165.495 49.6915L166.488 49.5834ZM166.256 46.7577C166.194 45.9604 166.115 45.1187 166.02 44.2328L165.029 44.3654C165.123 45.2427 165.201 46.0745 165.262 46.861L166.256 46.7577ZM166.02 44.2328L165.957 43.6411L164.966 43.7738L165.029 44.3654L166.02 44.2328ZM165.957 43.6411L165.904 43.1539L164.913 43.2866L164.966 43.7738L165.957 43.6411ZM165.904 43.1539C165.866 42.7928 165.824 42.4998 165.771 42.3316L164.82 42.6566C164.838 42.7142 164.872 42.9053 164.913 43.2866L165.904 43.1539ZM165.791 42.4278L165.773 42.2538L164.782 42.3864L164.8 42.5604L165.791 42.4278ZM165.775 42.2795L165.662 40.2472L164.667 40.3283L164.779 42.3606L165.775 42.2795ZM165.66 40.2214C165.565 39.3296 165.388 38.0154 165.132 36.2831L164.146 36.4554C164.402 38.1845 164.576 39.4827 164.669 40.3541L165.66 40.2214ZM165.132 36.2831C164.876 34.5539 164.702 33.2557 164.609 32.3844L163.617 32.517C163.713 33.4089 163.89 34.7231 164.146 36.4554L165.132 36.2831ZM164.609 32.3844C164.592 32.2282 164.626 32.0956 164.718 31.9635L163.906 31.402C163.673 31.737 163.574 32.1164 163.617 32.517L164.609 32.3844ZM164.718 31.9635C164.798 31.8482 164.89 31.792 165.026 31.7739L164.919 30.7796C164.499 30.8357 164.151 31.0502 163.906 31.402L164.718 31.9635ZM165.026 31.7739C165.13 31.7599 165.201 31.7743 165.255 31.799C165.31 31.8244 165.377 31.8751 165.449 31.9798C165.602 32.2028 165.739 32.6145 165.811 33.2825L166.802 33.1499C166.724 32.4259 166.564 31.8183 166.273 31.3948C166.123 31.1763 165.931 30.9969 165.689 30.8855C165.447 30.7733 165.184 30.744 164.919 30.7796L165.026 31.7739ZM165.81 33.2745L166.203 37.599L167.196 37.4824L166.803 33.1579L165.81 33.2745ZM166.203 37.5893C166.296 38.9018 166.429 40.3609 166.601 41.9664L167.593 41.8337C167.421 40.2376 167.29 38.7905 167.197 37.4922L166.203 37.5893ZM166.991 42.3927C167.438 42.4793 168.143 42.4409 169.042 42.3205L168.936 41.3262C168.031 41.4472 167.475 41.46 167.203 41.4075L166.991 42.3927ZM169.042 42.3205L170.326 42.1488L170.219 41.1545L168.936 41.3262L169.042 42.3205ZM170.76 41.7459C170.802 41.5505 170.814 41.3539 170.793 41.1584L169.802 41.2911C169.811 41.374 169.806 41.462 169.786 41.5573L170.76 41.7459ZM170.793 41.1584C170.672 40.0285 170.423 38.3779 170.05 36.2131L169.068 36.4088C169.44 38.5685 169.684 40.1938 169.802 41.2911L170.793 41.1584ZM170.049 36.2054C169.669 34.1917 169.413 32.5581 169.278 31.3007L168.287 31.4333C168.426 32.7279 168.687 34.3903 169.069 36.4165L170.049 36.2054ZM169.278 31.3007C169.265 31.1831 169.293 31.108 169.359 31.0339L168.626 30.373C168.357 30.6732 168.245 31.0404 168.287 31.4333L169.278 31.3007ZM169.362 31.0309C169.468 30.9102 169.589 30.8455 169.745 30.8247L169.638 29.8304C169.239 29.8838 168.894 30.0698 168.624 30.3759L169.362 31.0309ZM169.745 30.8247C169.811 30.8158 169.975 30.8238 170.276 30.8965L170.532 29.9209C170.206 29.8421 169.895 29.796 169.638 29.8304L169.745 30.8247ZM170.251 30.8899L170.578 30.9874L170.884 30.0249L170.556 29.9275L170.251 30.8899ZM170.235 30.5724C170.59 33.8769 171.178 38.2657 172 43.7363L172.985 43.5618C172.165 38.0973 171.579 33.7242 171.227 30.4398L170.235 30.5724ZM171.999 43.733L173.256 52.4957L174.243 52.3278L172.986 43.5651L171.999 43.733ZM173.254 52.4781C173.272 52.6493 173.227 52.7602 173.115 52.8654L173.784 53.5915C174.141 53.2574 174.296 52.8238 174.245 52.3455L173.254 52.4781ZM173.098 52.8817C172.975 53.0081 172.816 53.0914 172.594 53.1211L172.7 54.1154C173.125 54.0585 173.502 53.8819 173.801 53.5752L173.098 52.8817ZM183.202 52.2764L183.463 51.8425L183.457 51.8388L183.451 51.8353L183.202 52.2764ZM181.789 50.9123L181.364 51.1857L181.37 51.194L181.789 50.9123ZM180.044 46.451L180.532 46.3369L180.53 46.3284L180.528 46.32L180.044 46.451ZM179.203 41.2332L179.701 41.2291L179.702 41.1979L179.698 41.1669L179.203 41.2332ZM179.082 40.4375L178.587 40.5038L178.64 41.0009L179.136 40.9346L179.082 40.4375ZM179.015 39.8111L178.519 39.8703L178.519 39.8774L179.015 39.8111ZM178.788 37.3704L178.291 37.4212L178.292 37.4296L178.788 37.3704ZM178.685 33.7836L178.187 33.7981L178.187 33.8001L178.685 33.7836ZM179.136 30.4404L179.616 30.5635L179.619 30.5528L179.621 30.5421L179.136 30.4404ZM179.648 29.3128L180.021 29.6361L180.029 29.627L180.037 29.6175L179.648 29.3128ZM183.028 29.0018L182.866 29.4802L182.879 29.4838L183.028 29.0018ZM185.051 30.1431L185.405 29.7806L185.395 29.7714L185.051 30.1431ZM186.462 32.1429L186.017 32.3809L186.019 32.3849L186.462 32.1429ZM187.443 34.7297L187.926 34.5937L187.926 34.5921L187.443 34.7297ZM188.257 40.0217L188.752 39.9466L188.75 39.9355L188.257 40.0217ZM188.505 42.0006L189 41.9343L188.999 41.9256L188.505 42.0006ZM185.728 50.5618L186.105 50.8799L186.111 50.8733L186.116 50.8664L185.728 50.5618ZM186.377 49.063L185.894 48.9515L185.891 48.963L185.888 48.9746L186.377 49.063ZM186.764 45.1282L186.265 45.1456L186.265 45.1532L186.266 45.1607L186.764 45.1282ZM185.926 37.9686L185.436 38.0733L185.437 38.082L185.926 37.9686ZM185.221 33.368L185.717 33.3016L185.715 33.2886L185.713 33.2756L185.221 33.368ZM184.073 31.1918L183.723 31.5587L183.731 31.5657L184.073 31.1918ZM180.575 32.0481L181.063 32.1376L181.065 32.1285L181.067 32.1193L180.575 32.0481ZM180.681 35.9875L181.177 35.9212L181.175 35.9021L181.171 35.8833L180.681 35.9875ZM180.782 36.9272L181.279 36.8825L181.279 36.8716L181.277 36.8608L180.782 36.9272ZM180.884 38.5373L181.383 38.5184L181.382 38.5055L181.382 38.4926L180.884 38.5373ZM181.49 43.8571L181.982 43.7644L181.982 43.7628L181.49 43.8571ZM182.729 48.8451L183.202 48.6752L183.2 48.6711L182.729 48.8451ZM184.878 52.148C184.394 52.2128 183.927 52.1173 183.463 51.8425L182.941 52.7103C183.58 53.0882 184.265 53.2385 184.984 53.1423L184.878 52.148ZM183.451 51.8353C182.981 51.5759 182.565 51.1805 182.209 50.6307L181.37 51.194C181.8 51.8566 182.326 52.3707 182.954 52.7175L183.451 51.8353ZM182.214 50.639C181.424 49.3656 180.862 47.933 180.532 46.3369L179.556 46.5651C179.908 48.2664 180.51 49.8081 181.365 51.1857L182.214 50.639ZM180.528 46.32C180.156 44.7896 179.893 43.3056 179.738 41.8676L178.747 42.0002C178.906 43.4855 179.178 45.0128 179.56 46.5819L180.528 46.32ZM179.738 41.8676C179.71 41.6009 179.698 41.3896 179.701 41.2291L178.704 41.2374C178.701 41.4543 178.716 41.7101 178.747 42.0002L179.738 41.8676ZM179.698 41.1669L179.631 40.5405L178.64 40.6732L178.707 41.2996L179.698 41.1669ZM179.631 40.5405C179.624 40.4747 179.613 40.3916 179.588 40.315C179.578 40.2809 179.552 40.2069 179.496 40.1337C179.438 40.0581 179.281 39.9066 179.029 39.9403L179.136 40.9346C178.895 40.9668 178.749 40.8212 178.701 40.759C178.655 40.6991 178.639 40.6459 178.637 40.64C178.631 40.6199 178.635 40.623 178.64 40.6732L179.631 40.5405ZM179.578 40.3712L179.511 39.7448L178.519 39.8774L178.587 40.5038L179.578 40.3712ZM179.511 39.7519L179.285 37.3112L178.292 37.4296L178.519 39.8703L179.511 39.7519ZM179.285 37.3196C179.23 36.5925 179.196 35.4115 179.184 33.7671L178.187 33.8001C178.199 35.4471 178.234 36.6573 178.291 37.4212L179.285 37.3196ZM179.184 33.7692C179.18 32.6866 179.324 31.6185 179.616 30.5635L178.656 30.3174C178.339 31.4618 178.183 32.6225 178.187 33.7981L179.184 33.7692ZM179.621 30.5421C179.722 30.1054 179.865 29.817 180.021 29.6361L179.276 28.9896C178.973 29.3408 178.774 29.8041 178.651 30.3388L179.621 30.5421ZM180.037 29.6175C180.191 29.4211 180.351 29.3348 180.528 29.3111L180.421 28.3168C179.951 28.3798 179.56 28.6262 179.26 29.0082L180.037 29.6175ZM180.528 29.3111C181.39 29.1958 182.167 29.256 182.866 29.4801L183.19 28.5235C182.335 28.2496 181.41 28.1846 180.421 28.3168L180.528 29.3111ZM182.879 29.4838C183.583 29.689 184.19 30.0325 184.707 30.5149L185.395 29.7714C184.765 29.1835 184.024 28.7661 183.178 28.5197L182.879 29.4838ZM184.697 30.5055C185.178 30.9799 185.62 31.6015 186.017 32.3809L186.907 31.9049C186.472 31.0541 185.974 30.3425 185.405 29.7808L184.697 30.5055ZM186.019 32.3849C186.414 33.1414 186.728 33.9683 186.96 34.8673L187.926 34.5921C187.676 33.6258 187.336 32.7282 186.904 31.9009L186.019 32.3849ZM186.96 34.8656C187.197 35.7964 187.373 36.796 187.488 37.8654L188.479 37.7328C188.36 36.6213 188.176 35.5747 187.926 34.5937L186.96 34.8656ZM187.488 37.8654L187.518 38.1438L188.509 38.0112L188.479 37.7328L187.488 37.8654ZM187.518 38.1438C187.595 38.8681 187.677 39.523 187.764 40.1078L188.75 39.9355C188.666 39.3665 188.586 38.7252 188.509 38.0112L187.518 38.1438ZM187.762 40.0967L188.01 42.0757L188.999 41.9256L188.752 39.9466L187.762 40.0967ZM188.009 42.067C188.365 45.3849 188.237 47.8548 187.677 49.5234C187.399 50.351 187.022 50.9594 186.566 51.3811C186.114 51.7986 185.558 52.057 184.878 52.148L184.984 53.1423C185.853 53.026 186.609 52.6854 187.229 52.1122C187.845 51.5432 188.303 50.7692 188.62 49.8226C189.251 47.9431 189.361 45.298 189 41.9343L188.009 42.067ZM184.689 51.6993C185.248 51.6244 185.723 51.3346 186.105 50.8799L185.351 50.2436C185.109 50.5314 184.855 50.6685 184.582 50.705L184.689 51.6993ZM186.116 50.8664C186.486 50.3952 186.73 49.8164 186.865 49.1513L185.888 48.9746C185.778 49.5191 185.589 49.9395 185.34 50.2571L186.116 50.8664ZM186.86 49.1744C187.185 47.8813 187.318 46.5209 187.262 45.0956L186.266 45.1607C186.318 46.4978 186.193 47.7606 185.894 48.9515L186.86 49.1744ZM187.262 45.1107C187.251 43.9014 187.199 42.8556 187.104 41.9762L186.113 42.1088C186.203 42.9462 186.254 43.9576 186.265 45.1456L187.262 45.1107ZM187.104 41.9762C186.99 40.9096 186.759 39.5343 186.414 37.8551L185.437 38.082C185.779 39.7468 186.004 41.0873 186.113 42.1088L187.104 41.9762ZM186.415 37.8638C186.086 36.0985 185.876 34.7895 185.784 33.928L184.793 34.0607C184.889 34.9625 185.105 36.3029 185.436 38.0733L186.415 37.8638ZM185.784 33.928L185.717 33.3016L184.725 33.4343L184.793 34.0607L185.784 33.928ZM185.713 33.2756C185.555 32.2951 185.122 31.4695 184.414 30.8179L183.731 31.5657C184.273 32.0648 184.605 32.6899 184.729 33.4603L185.713 33.2756ZM184.422 30.825C183.722 30.1519 182.883 29.8584 181.937 29.9849L182.044 30.9792C182.671 30.8952 183.22 31.0749 183.724 31.5586L184.422 30.825ZM181.937 29.9849C181.443 30.051 181.011 30.256 180.682 30.6202C180.36 30.9767 180.173 31.4446 180.084 31.977L181.067 32.1193C181.135 31.7128 181.262 31.4503 181.412 31.2847C181.555 31.1269 181.752 31.0182 182.044 30.9792L181.937 29.9849ZM180.087 31.9586C179.919 32.7792 179.906 33.7796 180.031 34.9449L181.023 34.8123C180.904 33.7039 180.924 32.8174 181.063 32.1376L180.087 31.9586ZM180.031 34.9449C180.079 35.3932 180.132 35.7765 180.191 36.0918L181.171 35.8833C181.119 35.6016 181.069 35.2455 181.023 34.8123L180.031 34.9449ZM180.185 36.0539L180.286 36.9935L181.277 36.8608L181.177 35.9212L180.185 36.0539ZM180.284 36.9718L180.387 38.5819L181.382 38.4926L181.279 36.8825L180.284 36.9718ZM180.386 38.5561C180.392 39.068 180.427 39.6207 180.491 40.2137L181.482 40.081C181.421 39.514 181.388 38.9933 181.383 38.5184L180.386 38.5561ZM180.491 40.2137C180.626 41.4757 180.795 42.7216 180.998 43.9514L181.982 43.7628C181.782 42.5519 181.615 41.3247 181.482 40.081L180.491 40.2137ZM180.998 43.9498C181.281 45.7042 181.701 47.3941 182.257 49.0191L183.2 48.6711C182.663 47.1007 182.257 45.4652 181.982 43.7644L180.998 43.9498ZM182.256 49.015C182.54 49.8699 182.86 50.5478 183.231 51.0074C183.607 51.4721 184.096 51.7786 184.689 51.6993L184.582 50.705C184.458 50.7216 184.27 50.6832 184.011 50.3623C183.747 50.0362 183.472 49.4876 183.202 48.6752L182.256 49.015ZM197.25 48.9493L196.781 49.1322L196.782 49.1342L197.25 48.9493ZM195.998 44.4926L195.51 44.6087L195.512 44.6155L195.998 44.4926ZM194.665 37.6462L194.174 37.7442L194.175 37.7496L194.665 37.6462ZM193.556 31.8996L193.068 32.0124L193.069 32.0156L193.556 31.8996ZM192.612 28.6724L192.145 28.5094L192.06 28.7409L192.187 28.9461L192.612 28.6724ZM196.487 37.8967L196.003 38.0313L196.004 38.0318L196.487 37.8967ZM198.129 45.337L197.637 45.4251L198.627 45.3437L198.129 45.337ZM198.176 44.1306L197.678 44.1228L197.678 44.1238L198.176 44.1306ZM198.295 39.6668L197.797 39.6668L197.797 39.6741L198.295 39.6668ZM198.265 35.1172L197.766 35.1382L197.767 35.1474L198.265 35.1172ZM197.94 29.795L197.69 29.3677L197.41 29.5383L197.445 29.8614L197.94 29.795ZM198.832 29.2521L198.779 28.7549L198.674 28.769L198.582 28.8247L198.832 29.2521ZM199.587 29.3982L199.301 29.816L199.327 29.8342L199.356 29.8487L199.587 29.3982ZM199.996 30.2612L199.5 30.3276L199.508 30.3972L199.534 30.4616L199.996 30.2612ZM201.357 34.421L200.875 34.56L200.877 34.5681L201.357 34.421ZM202.599 39.7617L203.088 39.6525L203.087 39.6516L202.599 39.7617ZM203.566 44.1859L203.082 44.3174L204.064 44.1901L203.566 44.1859ZM202.987 29.9316L203.484 29.9534L203.485 29.9409L202.987 29.9316ZM202.95 27.2891L203.445 27.2228L203.437 27.1421L203.403 27.069L202.95 27.2891ZM204.415 25.8576L204.133 26.2782L204.133 26.2782L204.415 25.8576ZM204.77 27.8574L204.278 27.7906L204.267 27.8571L204.275 27.9237L204.77 27.8574ZM204.789 28.0314L205.277 28.122L205.293 28.0438L205.284 27.9651L204.789 28.0314ZM205.135 40.4459L205.633 40.4448L205.634 40.4393L205.135 40.4459ZM205.299 48.8607L204.81 48.7757L204.809 48.7814L205.299 48.8607ZM203.463 49.4594L203.093 49.8054L203.111 49.8243L203.13 49.8413L203.463 49.4594ZM201.711 41.3277L202.195 41.197L202.192 41.186L201.711 41.3277ZM200.615 37.3443L200.133 37.4848L200.135 37.4928L200.615 37.3443ZM199.668 33.7645L200.15 33.6241L199.17 33.7623L199.668 33.7645ZM200.017 40.9543L199.519 40.9773L200.017 40.9543ZM199.818 47.2996L200.314 47.3301L200.314 47.3299L199.818 47.2996ZM198.635 50.3777C198.681 50.3716 198.596 50.4177 198.383 50.1321C198.185 49.867 197.96 49.4218 197.718 48.7644L196.782 49.1342C197.036 49.8225 197.299 50.371 197.581 50.7477C197.847 51.104 198.233 51.4401 198.741 51.372L198.635 50.3777ZM197.719 48.7665C197.296 47.6031 196.884 46.1392 196.484 44.3697L195.512 44.6155C195.917 46.4096 196.339 47.9168 196.781 49.1322L197.719 48.7665ZM196.486 44.3765C196.105 42.5743 195.662 40.2968 195.156 37.5429L194.175 37.7496C194.682 40.5081 195.127 42.7948 195.51 44.6087L196.486 44.3765ZM195.156 37.5483C194.846 35.7473 194.475 33.8257 194.044 31.7836L193.069 32.0156C193.497 34.0474 193.866 35.9569 194.174 37.7442L195.156 37.5483ZM194.045 31.7867C193.87 30.932 193.702 30.2246 193.539 29.6686C193.38 29.1235 193.215 28.6864 193.036 28.3988L192.187 28.9461C192.292 29.1148 192.427 29.4436 192.582 29.9743C192.734 30.4939 192.896 31.172 193.068 32.0124L194.045 31.7867ZM193.079 28.8355C193.134 28.6846 193.204 28.5936 193.276 28.5355C193.347 28.4776 193.449 28.4293 193.604 28.4086L193.497 27.4143C193.19 27.4554 192.904 27.5649 192.663 27.7607C192.421 27.9563 192.253 28.2149 192.145 28.5094L193.079 28.8355ZM193.604 28.4086C193.699 28.3958 193.763 28.4105 193.815 28.4372C193.871 28.4661 193.943 28.5258 194.022 28.6508C194.188 28.9135 194.332 29.3847 194.412 30.126L195.403 29.9934C195.318 29.2035 195.154 28.5511 194.868 28.0977C194.72 27.8646 194.531 27.6682 194.289 27.5427C194.042 27.4152 193.772 27.3775 193.497 27.4143L193.604 28.4086ZM194.412 30.126C194.61 31.9711 195.143 34.6106 196.003 38.0313L196.97 37.7621C196.113 34.3528 195.593 31.7675 195.403 29.9934L194.412 30.126ZM196.004 38.0318C196.86 41.422 197.402 43.8823 197.637 45.4251L198.622 45.2488C198.38 43.655 197.827 41.1551 196.97 37.7617L196.004 38.0318ZM198.627 45.3437L198.674 44.1373L197.678 44.1238L197.631 45.3303L198.627 45.3437ZM198.674 44.1384C198.739 42.5486 198.779 41.0557 198.794 39.6595L197.797 39.6741C197.782 41.0589 197.742 42.5417 197.678 44.1228L198.674 44.1384ZM198.794 39.6668C198.83 38.2386 198.819 36.7119 198.763 35.087L197.767 35.1474C197.822 36.755 197.832 38.2614 197.797 39.6668L198.794 39.6668ZM198.763 35.0962C198.733 33.2734 198.624 31.4842 198.436 29.7287L197.445 29.8614C197.63 31.5859 197.737 33.3448 197.766 35.1382L198.763 35.0962ZM198.19 30.2224L199.082 29.6795L198.582 28.8247L197.69 29.3677L198.19 30.2224ZM198.885 29.7492C199.094 29.7213 199.218 29.7597 199.301 29.816L199.873 28.9804C199.551 28.7614 199.172 28.7024 198.779 28.7549L198.885 29.7492ZM199.356 29.8487C199.414 29.8772 199.456 29.9156 199.471 30.0492L200.462 29.9165C200.416 29.4933 200.206 29.1419 199.817 28.9478L199.356 29.8487ZM199.471 30.0492L199.5 30.3276L200.492 30.1949L200.462 29.9165L199.471 30.0492ZM199.534 30.4616C200.034 31.6884 200.481 33.0541 200.875 34.56L201.839 34.282C201.437 32.7409 200.977 31.3335 200.458 30.0609L199.534 30.4616ZM200.877 34.5681C201.291 36.0497 201.702 37.8169 202.11 39.8717L203.087 39.6516C202.677 37.5798 202.26 35.7866 201.837 34.2739L200.877 34.5681ZM202.109 39.8708C202.421 41.4595 202.745 42.9418 203.082 44.3174L204.05 44.0545C203.718 42.6956 203.397 41.2283 203.088 39.6525L202.109 39.8708ZM204.064 44.1901C204.171 40.991 203.978 37.1085 203.489 32.5473L202.497 32.6799C202.984 37.2132 203.172 41.0456 203.068 44.1818L204.064 44.1901ZM203.489 32.5473C203.416 31.8674 203.412 31.0051 203.484 29.9534L202.49 29.9099C202.415 30.9956 202.416 31.9214 202.497 32.6799L203.489 32.5473ZM203.485 29.9409C203.533 28.8399 203.521 27.9309 203.445 27.2228L202.454 27.3554C202.523 27.9929 202.536 28.8456 202.489 29.9224L203.485 29.9409ZM203.403 27.069C203.33 26.9091 203.291 26.7684 203.278 26.6451L202.287 26.7777C202.313 27.0256 202.386 27.27 202.497 27.5092L203.403 27.069ZM203.278 26.6451C203.26 26.4764 203.302 26.4224 203.327 26.397C203.371 26.3518 203.493 26.2734 203.787 26.2341L203.68 25.2398C203.28 25.2933 202.897 25.4238 202.624 25.7034C202.332 26.0028 202.245 26.3896 202.287 26.7777L203.278 26.6451ZM203.787 26.2341C203.982 26.2079 204.081 26.2434 204.133 26.2782L204.697 25.4369C204.396 25.2366 204.04 25.1917 203.68 25.2398L203.787 26.2341ZM204.133 26.2782C204.166 26.3004 204.211 26.3421 204.226 26.483L205.217 26.3503C205.177 25.9808 205.017 25.6497 204.697 25.4369L204.133 26.2782ZM204.226 26.483L204.282 27.005L205.273 26.8724L205.217 26.3503L204.226 26.483ZM204.282 27.005C204.316 27.3218 204.311 27.5816 204.278 27.7906L205.262 27.9242C205.313 27.6042 205.313 27.2515 205.273 26.8724L204.282 27.005ZM204.275 27.9237L204.293 28.0977L205.284 27.9651L205.266 27.7911L204.275 27.9237ZM204.301 27.9408C204.087 28.9714 204.052 30.1129 204.186 31.3597L205.177 31.2271C205.052 30.061 205.088 29.0279 205.277 28.122L204.301 27.9408ZM204.186 31.3597L204.458 33.9001L205.449 33.7675L205.177 31.2271L204.186 31.3597ZM204.458 33.9001C204.612 35.3309 204.673 37.5105 204.637 40.4525L205.634 40.4393C205.669 37.4884 205.609 35.2599 205.449 33.7675L204.458 33.9001ZM204.637 40.447C204.57 43.3311 204.611 45.4942 204.764 46.9202L205.755 46.7876C205.609 45.4295 205.567 43.3206 205.633 40.4448L204.637 40.447ZM204.764 46.9202L204.831 47.5466L205.822 47.414L205.755 46.7876L204.764 46.9202ZM204.831 47.5466C204.885 48.0472 204.873 48.4537 204.81 48.7757L205.788 48.9457C205.876 48.4943 205.883 47.9806 205.822 47.414L204.831 47.5466ZM204.809 48.7814C204.781 48.9318 204.728 49.0104 204.674 49.0587C204.616 49.1107 204.51 49.168 204.314 49.1942L204.421 50.1885C204.757 50.1435 205.072 50.0268 205.324 49.8019C205.581 49.5733 205.727 49.2722 205.789 48.94L204.809 48.7814ZM204.314 49.1942C204.055 49.2288 203.903 49.172 203.795 49.0775L203.13 49.8413C203.488 50.1551 203.939 50.2529 204.421 50.1885L204.314 49.1942ZM203.832 49.1133C203.702 48.9725 203.611 48.7758 203.58 48.4906L202.589 48.6232C202.638 49.0804 202.798 49.4854 203.093 49.8054L203.832 49.1133ZM203.58 48.4906C203.375 46.5807 202.912 44.1474 202.195 41.197L201.226 41.4584C201.938 44.3885 202.391 46.7747 202.589 48.6232L203.58 48.4906ZM202.192 41.186C201.839 39.8659 201.473 38.5359 201.095 37.1958L200.135 37.4928C200.513 38.8284 200.877 40.154 201.229 41.4695L202.192 41.186ZM201.097 37.2038L200.15 33.6241L199.186 33.905L200.133 37.4847L201.097 37.2038ZM199.17 33.7623C199.149 34.4694 199.174 35.1597 199.246 35.833L200.238 35.7004C200.17 35.0745 200.147 34.4301 200.166 33.7668L199.17 33.7623ZM199.246 35.833C199.384 37.1117 199.475 38.8246 199.519 40.9773L200.515 40.9313C200.471 38.7656 200.379 37.0202 200.238 35.7004L199.246 35.833ZM199.519 40.9773C199.562 43.1195 199.496 45.2168 199.321 47.2694L200.314 47.3299C200.493 45.2404 200.56 43.1075 200.515 40.9313L199.519 40.9773ZM199.321 47.2692C199.223 48.4125 199.083 49.2432 198.912 49.7845C198.826 50.0566 198.742 50.2245 198.673 50.3179C198.607 50.4081 198.59 50.3837 198.635 50.3777L198.741 51.372C199.063 51.329 199.302 51.1277 199.469 50.9014C199.633 50.6783 199.759 50.39 199.862 50.0662C200.067 49.4158 200.214 48.496 200.314 47.3301L199.321 47.2692Z" fill="#FBC700"/>
<g clip-path="url(#clip0)">
<path d="M83.8348 77.8642C83.9004 77.9697 83.9699 78.0724 84.043 78.1721C83.9688 78.0724 83.8986 77.9697 83.8348 77.8642Z" fill="#FDD79B"/>
<path d="M132.016 78.1721C132.089 78.0724 132.159 77.9697 132.224 77.8642C132.16 77.9697 132.091 78.0724 132.016 78.1721Z" fill="#FDD79B"/>
<path d="M135.998 31.9576C137.481 30.5202 138.068 28.2948 137.316 26.2294C136.639 24.3681 135.045 23.107 133.23 22.7672C132.934 22.7121 132.76 22.41 132.859 22.1253C133.473 20.3835 133.178 18.3726 131.905 16.8558C130.632 15.3384 128.702 14.6982 126.881 14.9997C126.583 15.049 126.316 14.8246 126.312 14.5237C126.293 12.6769 125.328 10.8881 123.613 9.89778C121.897 8.90742 119.866 8.96599 118.257 9.87285C117.995 10.0207 117.666 9.90126 117.56 9.61946C116.911 7.8904 115.392 6.53996 113.442 6.19612C111.491 5.8517 109.602 6.602 108.4 8.00404C108.204 8.23308 107.855 8.23308 107.659 8.00404C106.457 6.602 104.568 5.85228 102.617 6.19612C100.667 6.53996 99.1483 7.8904 98.4989 9.61946C98.3927 9.90126 98.0646 10.0207 97.8019 9.87285C96.1934 8.96599 94.1617 8.90742 92.4466 9.89778C90.7314 10.8881 89.766 12.6769 89.7468 14.5237C89.7434 14.8246 89.4761 15.049 89.1786 14.9997C87.3568 14.6982 85.4277 15.3384 84.1549 16.8558C82.8816 18.3726 82.5865 20.3835 83.1999 22.1253C83.2997 22.41 83.1257 22.7121 82.8294 22.7672C81.014 23.107 79.42 24.3681 78.7428 26.2294C77.9907 28.2953 78.5792 30.5207 80.0613 31.9576H135.998Z" fill="#FBC700"/>
<path d="M137.351 26.2183C136.777 24.513 134.988 23.0948 133.229 22.7677C132.933 22.7127 132.759 22.4094 132.859 22.1253C133.473 20.3835 133.178 18.372 131.905 16.8558C130.631 15.3383 128.702 14.6976 126.881 14.9991C126.584 15.0484 126.316 14.8252 126.313 14.5237C126.294 12.6775 125.327 10.8881 123.614 9.89775C121.898 8.90797 119.866 8.96595 118.258 9.87281C117.995 10.0213 117.666 9.90065 117.561 9.61827C116.911 7.89094 115.392 6.53993 113.442 6.19493C111.649 5.88008 109.91 6.48774 108.706 7.67582C109.299 7.58653 109.917 7.59117 110.54 7.70076C112.507 8.04808 114.484 9.68437 115.535 11.3352C116.268 12.4873 117.492 12.4826 118.706 12.3017C119.525 12.18 120.381 12.0623 121.203 12.2211C122.039 12.3818 123.01 12.6636 123.447 13.4144C123.806 14.0302 123.974 14.7463 124.065 15.4468C124.25 16.861 124.968 16.836 126.195 16.9479C128.503 17.1578 131.036 18.8788 130.518 21.4614C130.327 22.4129 130.068 23.2739 130.613 24.1698C131.298 25.2958 132.709 25.4025 133.568 26.3134C134.344 27.1362 134.167 28.3863 133.119 28.8682C132.481 29.1616 131.733 29.1175 131.05 29.1001C129.567 29.063 128.078 29.1279 126.595 29.1279C121.162 29.1279 115.729 29.1279 110.296 29.1279C104.303 29.1279 98.3098 29.1279 92.3167 29.1279C88.2532 29.1279 84.1897 29.1279 80.1256 29.1279C80.0375 29.1279 78.5288 29.1766 78.5189 29.1279C78.7329 30.1995 79.2698 31.191 80.0619 31.9569H135.997C136.424 31.9569 137.11 30.4384 137.245 30.1079C137.546 29.3663 137.681 28.5591 137.634 27.7601C137.601 27.1983 137.509 26.688 137.351 26.2183Z" fill="#E9B900"/>
<path d="M108.03 40.2051H78.1548L83.2591 76.2575C83.5536 78.3385 85.3355 79.8855 87.4368 79.8855H128.622C130.724 79.8855 132.506 78.3385 132.8 76.2575L137.904 40.2051H108.03Z" fill="#FDD79B"/>
<path d="M137.904 40.2051L137.378 43.9184H78.6813L78.1548 40.2051H137.904Z" fill="#FCCD7F"/>
<path d="M89.9921 40.2051L93.2363 79.8843H87.4368C85.3355 79.8843 83.5536 78.3373 83.2591 76.2563L78.1548 40.2051H89.9921Z" fill="#EA4444"/>
<path d="M101.859 40.2051H114.2L112.707 79.8843H103.353L101.859 40.2051Z" fill="#EA4444"/>
<path d="M90.2948 43.9184H78.6813L78.1548 40.2051H89.9915L90.2948 43.9184Z" fill="#D93131"/>
<path d="M114.2 40.2051L114.06 43.9184H101.999L101.86 40.2051H114.2Z" fill="#D93131"/>
<path d="M137.905 40.2051L132.8 76.2563C132.506 78.3373 130.724 79.8843 128.622 79.8843H122.823L126.068 40.2051H137.905Z" fill="#EA4444"/>
<path d="M137.904 40.2051L137.378 43.9184H125.764L126.068 40.2051H137.904Z" fill="#D93131"/>
<path d="M137.904 40.2052H78.1548C77.0537 40.2052 76.1613 39.3128 76.1613 38.2117V33.9511C76.1613 32.85 77.0537 31.957 78.1548 31.957H137.904C139.005 31.957 139.898 32.85 139.898 33.9511V38.2117C139.898 39.3128 139.005 40.2052 137.904 40.2052Z" fill="#FEF1DA"/>
<path d="M138.134 30.8542C138.861 29.3095 138.968 27.5074 138.364 25.8479C137.659 23.9112 136.061 22.4216 134.105 21.8343C134.326 20.9083 134.341 19.9428 134.149 19.007C134.025 18.404 133.434 18.0149 132.832 18.1396C132.229 18.2636 131.84 18.8533 131.965 19.4564C132.122 20.2217 132.068 21.0167 131.808 21.7554C131.652 22.1978 131.697 22.6843 131.931 23.0896C132.165 23.4949 132.564 23.7767 133.026 23.8631C134.511 24.1408 135.754 25.1938 136.269 26.6104C136.797 28.0611 136.498 29.6771 135.515 30.8426H80.5443C79.5609 29.6771 79.2623 28.0611 79.7905 26.6104C80.306 25.1938 81.5491 24.1408 83.0341 23.8631C83.4956 23.7767 83.8946 23.4949 84.1288 23.0896C84.3625 22.6843 84.4071 22.1984 84.2512 21.7554C83.7496 20.3296 84.0395 18.7269 85.009 17.5719C85.9779 16.4169 87.5063 15.8527 88.9965 16.0997C89.4598 16.1768 89.9306 16.0481 90.2896 15.7472C90.6479 15.4468 90.8566 15.005 90.8613 14.5353C90.8775 13.0243 91.698 11.617 93.0038 10.8632C94.3095 10.1094 95.9383 10.1025 97.2551 10.8441C97.6639 11.0743 98.1509 11.1149 98.5905 10.9548C99.0305 10.7948 99.3773 10.451 99.5425 10.0115C100.074 8.59666 101.327 7.55586 102.811 7.29377C104.297 7.03227 105.829 7.58195 106.812 8.72944C107.118 9.08604 107.562 9.29014 108.03 9.29014C108.497 9.29014 108.942 9.08604 109.247 8.72944C110.23 7.58195 111.764 7.03227 113.248 7.29377C114.733 7.55586 115.985 8.59724 116.517 10.0115C116.682 10.451 117.029 10.7948 117.469 10.9548C117.909 11.1149 118.395 11.0743 118.805 10.8441C120.121 10.1025 121.75 10.1094 123.056 10.8632C124.362 11.617 125.182 13.0243 125.198 14.5353C125.203 15.005 125.412 15.4468 125.77 15.7472C126.129 16.0481 126.6 16.1757 127.063 16.0997C127.861 15.9669 128.678 16.062 129.424 16.3728C129.992 16.61 130.644 16.3415 130.882 15.7733C131.119 15.205 130.851 14.5521 130.282 14.315C129.363 13.9317 128.374 13.7641 127.384 13.8233C127.144 11.795 125.956 9.96275 124.17 8.93238C122.386 7.90202 120.204 7.78837 118.328 8.5955C117.41 6.77134 115.665 5.4557 113.635 5.09794C111.605 4.7396 109.517 5.37974 108.03 6.77946C106.543 5.37974 104.454 4.7396 102.424 5.09794C100.394 5.4557 98.6502 6.77134 97.7323 8.5955C95.856 7.78837 93.6746 7.90144 91.8893 8.93238C90.104 9.96275 88.9148 11.7956 88.6765 13.8239C86.636 13.7079 84.6257 14.5597 83.3014 16.1386C81.9759 17.7174 81.4854 19.8466 81.9544 21.8343C79.9987 22.4216 78.4006 23.9107 77.6956 25.8479C77.0914 27.5068 77.1992 29.3089 77.9258 30.8542C76.319 30.9725 75.0469 32.3142 75.0469 33.9511V38.2117C75.0469 39.5783 75.9346 40.7392 77.1633 41.1549L80.3605 63.7325C80.4469 64.3419 81.0105 64.7669 81.6205 64.6799C82.2299 64.5935 82.6543 64.0294 82.5679 63.4194L79.4385 41.3202H88.9646L92.0267 78.7693H87.4368C85.9002 78.7693 84.5788 77.6218 84.3631 76.0998L83.2933 68.5457C83.2069 67.9363 82.6433 67.5113 82.0333 67.5982C81.4233 67.6846 80.9995 68.2488 81.0858 68.8588L82.1556 76.4129V76.4135C82.5256 79.0279 84.7962 80.9999 87.4368 80.9999H128.622C131.263 80.9999 133.534 79.0279 133.904 76.4135L134.276 73.7822L138.896 41.1549C140.125 40.7398 141.013 39.5783 141.013 38.2117V33.9511C141.013 32.3148 139.741 30.9725 138.134 30.8542ZM77.2763 33.9511C77.2763 33.4663 77.6706 33.072 78.1554 33.072H137.904C138.389 33.072 138.783 33.4663 138.783 33.9511V38.2117C138.783 38.6964 138.389 39.0901 137.904 39.0901H78.1548C77.6706 39.0901 77.2763 38.6964 77.2763 38.2117V33.9511ZM113.864 78.7705L115.274 41.3202H124.858L121.795 78.7705H113.864ZM113.043 41.3202L111.633 78.7693H104.426L103.016 41.3202H113.043ZM131.696 76.1003C131.481 77.6218 130.16 78.7693 128.622 78.7693H124.032L127.095 41.3202H136.621L132.056 73.5624L131.696 76.1003ZM91.2016 41.3202H100.785L102.195 78.7705H94.2637L91.2016 41.3202Z" fill="black"/>
<path d="M123.065 21.5861C121.406 20.6282 119.384 20.5117 117.634 21.2399C116.761 19.5573 115.138 18.3466 113.252 18.0143C111.365 17.6815 109.425 18.2636 108.03 19.5462C106.634 18.2636 104.694 17.6815 102.808 18.0143C100.922 18.3466 99.2979 19.5573 98.4252 21.2399C96.6753 20.5122 94.6528 20.6282 92.9945 21.5861C91.1257 22.6646 89.9509 24.6766 89.9283 26.8371C89.9219 27.4528 90.416 27.9573 91.0317 27.9637H91.0433C91.6539 27.9637 92.152 27.472 92.1584 26.8603C92.1723 25.4843 92.9203 24.2035 94.1089 23.5169C95.2982 22.8304 96.7814 22.8235 97.9805 23.499C98.3806 23.7251 98.8566 23.7639 99.2868 23.6074C99.7171 23.4508 100.057 23.1145 100.218 22.6843C100.702 21.3965 101.843 20.4479 103.195 20.2096C104.548 19.9713 105.943 20.4722 106.839 21.5171C107.138 21.8661 107.572 22.0656 108.03 22.0656C108.488 22.0656 108.921 21.8656 109.221 21.5171C110.116 20.4722 111.513 19.9718 112.864 20.2096C114.216 20.4479 115.357 21.3965 115.841 22.6843C116.003 23.1145 116.342 23.4508 116.772 23.6074C117.203 23.7639 117.679 23.7245 118.079 23.499C119.278 22.8235 120.761 22.8304 121.95 23.5169C123.139 24.2035 123.887 25.4843 123.901 26.8603C123.908 27.472 124.405 27.9637 125.016 27.9637H125.027C125.643 27.9573 126.137 27.4528 126.131 26.8371C126.108 24.6766 124.933 22.6646 123.065 21.5861Z" fill="black"/>
</g>
<defs>
<clipPath id="clip0">
<rect width="76" height="76" fill="white" transform="translate(70 4.99994)"/>
</clipPath>
</defs>
</svg>
