<svg width="241" height="81" viewBox="0 0 241 81" fill="none" xmlns="http://www.w3.org/2000/svg">
<path d="M42.05 22.4999L42.24 21.5181L42.2307 21.5164L42.05 22.4999ZM44.35 23.5499L43.6429 24.257L43.6543 24.2684L43.6661 24.2795L44.35 23.5499ZM44.2 27.6999L43.5804 26.9151L43.57 26.9233L43.5598 26.9317L44.2 27.6999ZM41.3 28.2999L41.2225 29.2969L41.2252 29.2971L41.3 28.2999ZM34.25 27.8499L34.1901 28.8481L34.2005 28.8488L34.2108 28.8492L34.25 27.8499ZM27.65 27.6499L27.6622 26.65L26.8331 26.6399L26.6696 27.4528L27.65 27.6499ZM24.25 46.1499L23.2636 45.9855L23.2628 45.9902L24.25 46.1499ZM23.1 54.0499L24.091 54.1836L24.0912 54.1821L23.1 54.0499ZM22.3 61.2499L21.3026 61.1774L21.3024 61.1811L22.3 61.2499ZM21.1 63.4999L21.6633 64.3262L21.6759 64.3176L21.6882 64.3087L21.1 63.4999ZM15.9 63.4499L16.5644 62.7025L16.5644 62.7025L15.9 63.4499ZM15.35 57.3999L14.3601 57.2585L14.359 57.2661L14.358 57.2737L15.35 57.3999ZM16.25 51.5499L15.2659 51.3725L15.2645 51.3803L15.2632 51.3882L16.25 51.5499ZM17.1 46.2499L16.1103 46.1067L16.1088 46.1178L17.1 46.2499ZM18.35 38.6999L17.367 38.5164L17.367 38.5164L18.35 38.6999ZM19.75 31.5999L20.7289 31.8045L20.7306 31.7961L19.75 31.5999ZM20.1 29.8999L21.0786 30.106L21.0806 30.0961L20.1 29.8999ZM20.55 27.6999L21.529 27.9039L21.7878 26.6616L20.5194 26.7004L20.55 27.6999ZM12.85 28.4999L12.6239 27.5258L12.6239 27.5258L12.85 28.4999ZM8.85 30.3499L8.14289 29.6428L8.14289 29.6428L8.85 30.3499ZM8.7 36.5999L9.56824 36.1038L9.55489 36.0804L9.5403 36.0578L8.7 36.5999ZM7.75 39.1499L8.33819 39.9587L8.34439 39.9541L7.75 39.1499ZM4.05 39.4499L4.72267 38.71L4.71034 38.6988L4.69765 38.688L4.05 39.4499ZM2.4 37.0499L1.47348 37.4263L1.47781 37.4367L2.4 37.0499ZM4.5 26.6499L5.17994 27.3832L5.18045 27.3827L4.5 26.6499ZM12.95 22.8499L12.744 21.8714L12.7422 21.8718L12.95 22.8499ZM36.3 21.8499L36.2386 22.848L36.2395 22.8481L36.3 21.8499ZM41.86 23.4817C42.7876 23.6613 43.3373 23.9515 43.6429 24.257L45.0571 22.8428C44.3627 22.1484 43.3791 21.7386 42.24 21.5182L41.86 23.4817ZM43.6661 24.2795C44.0194 24.6107 44.15 24.938 44.15 25.2999H46.15C46.15 24.3285 45.7473 23.4892 45.0339 22.8204L43.6661 24.2795ZM44.15 25.2999C44.15 26.2124 43.8937 26.6677 43.5804 26.9151L44.8196 28.4848C45.7729 27.7322 46.15 26.5875 46.15 25.2999H44.15ZM43.5598 26.9317C43.2609 27.1808 42.6206 27.3962 41.3748 27.3027L41.2252 29.2971C42.6461 29.4037 43.9391 29.2191 44.8402 28.4682L43.5598 26.9317ZM41.3775 27.3029C38.3729 27.0693 36.0081 26.9181 34.2892 26.8507L34.2108 28.8492C35.8919 28.9151 38.2272 29.064 41.2225 29.2969L41.3775 27.3029ZM34.3099 26.8517C32.6206 26.7504 30.4028 26.6834 27.6622 26.65L27.6378 28.6499C30.3639 28.6831 32.5461 28.7495 34.1901 28.8481L34.3099 26.8517ZM26.6696 27.4528C25.4341 33.5971 24.2988 39.7746 23.2636 45.9855L25.2364 46.3143C26.2679 40.1252 27.3992 33.9695 28.6304 27.8471L26.6696 27.4528ZM23.2628 45.9902C22.8943 48.2684 22.5096 50.9113 22.1088 53.9178L24.0912 54.1821C24.4904 51.1886 24.8724 48.5648 25.2372 46.3096L23.2628 45.9902ZM22.109 53.9163C21.7077 56.8924 21.4381 59.315 21.3026 61.1774L23.2974 61.3225C23.4286 59.5182 23.6923 57.1408 24.091 54.1836L22.109 53.9163ZM21.3024 61.1811C21.2545 61.8758 20.9879 62.345 20.5118 62.6912L21.6882 64.3087C22.6788 63.5882 23.2122 62.5574 23.2976 61.3187L21.3024 61.1811ZM20.5367 62.6737C19.9953 63.0428 19.3163 63.2499 18.45 63.2499V65.2499C19.6504 65.2499 20.738 64.9571 21.6633 64.3262L20.5367 62.6737ZM18.45 63.2499C17.5037 63.2499 16.923 63.0214 16.5644 62.7025L15.2356 64.1973C16.077 64.9452 17.1963 65.2499 18.45 65.2499V63.2499ZM16.5644 62.7025C16.1963 62.3753 16 61.9566 16 61.3499H14C14 62.4766 14.4037 63.4579 15.2356 64.1973L16.5644 62.7025ZM16 61.3499C16 60.619 16.1089 59.3575 16.342 57.5262L14.358 57.2737C14.1244 59.1091 14 60.4809 14 61.3499H16ZM16.34 57.5414C16.6056 55.6821 16.9045 53.7389 17.2368 51.7117L15.2632 51.3882C14.9288 53.4277 14.6278 55.3845 14.3601 57.2585L16.34 57.5414ZM17.2341 51.7274C17.6026 49.684 17.8886 47.9016 18.0912 46.3821L16.1088 46.1178C15.9114 47.5983 15.6307 49.3492 15.2659 51.3725L17.2341 51.7274ZM18.0897 46.3932C18.4544 43.8732 18.8689 41.37 19.333 38.8834L17.367 38.5164C16.8978 41.0299 16.4789 43.56 16.1103 46.1067L18.0897 46.3932ZM19.333 38.8834C19.7985 36.3897 20.2638 34.0301 20.7289 31.8045L18.7711 31.3954C18.3029 33.6365 17.8348 36.0102 17.367 38.5164L19.333 38.8834ZM20.7306 31.7961C20.8298 31.3001 20.9457 30.7368 21.0786 30.1059L19.1215 29.6939C18.9876 30.3297 18.8702 30.8998 18.7694 31.4038L20.7306 31.7961ZM21.0806 30.0961C21.2133 29.4325 21.3628 28.7018 21.529 27.9039L19.571 27.496C19.4039 28.2981 19.2534 29.0341 19.1194 29.7038L21.0806 30.0961ZM20.5194 26.7004C17.226 26.8012 14.584 27.0708 12.6239 27.5258L13.0761 29.474C14.8493 29.0624 17.3407 28.7986 20.5806 28.6995L20.5194 26.7004ZM12.6239 27.5258C10.6871 27.9754 9.1379 28.6478 8.14289 29.6428L9.55711 31.057C10.1621 30.4521 11.2796 29.8911 13.0761 29.474L12.6239 27.5258ZM8.14289 29.6428C7.16238 30.6233 6.7 31.8911 6.7 33.3499H8.7C8.7 32.3421 9.00429 31.6099 9.55711 31.057L8.14289 29.6428ZM6.7 33.3499C6.7 34.6919 7.09802 35.9615 7.8597 37.1421L9.5403 36.0578C8.96865 35.1717 8.7 34.2746 8.7 33.3499H6.7ZM7.83176 37.0961C7.87946 37.1795 7.9 37.2587 7.9 37.3499H9.9C9.9 36.9078 9.78721 36.487 9.56824 36.1038L7.83176 37.0961ZM7.9 37.3499C7.9 37.5301 7.80094 37.8688 7.15561 38.3458L8.34439 39.9541C9.23239 39.2978 9.9 38.4364 9.9 37.3499H7.9ZM7.16183 38.3412C6.57563 38.7675 6.01104 38.9499 5.45 38.9499V40.9499C6.48896 40.9499 7.4577 40.599 8.33817 39.9587L7.16183 38.3412ZM5.45 38.9499C5.09386 38.9499 4.87881 38.8519 4.72267 38.71L3.37733 40.1899C3.95453 40.7146 4.6728 40.9499 5.45 40.9499V38.9499ZM4.69765 38.688C4.17952 38.2476 3.71131 37.5911 3.32219 36.6632L1.47781 37.4367C1.95536 38.5754 2.58714 39.5189 3.40235 40.2119L4.69765 38.688ZM3.32647 36.6736C2.94875 35.7438 2.75 34.6744 2.75 33.4499H0.75C0.75 34.8921 0.984588 36.2228 1.47353 37.4263L3.32647 36.6736ZM2.75 33.4499C2.75 30.854 3.57885 28.8679 5.17994 27.3832L3.82006 25.9167C1.75449 27.832 0.75 30.3792 0.75 33.4499H2.75ZM5.18045 27.3827C6.86347 25.8199 9.48417 24.6083 13.1578 23.8281L12.7422 21.8718C8.8825 22.6915 5.86986 24.0133 3.81955 25.9171L5.18045 27.3827ZM13.156 23.8285C16.8627 23.0481 21.6537 22.6499 27.55 22.6499V20.6499C21.5796 20.6499 16.6373 21.0517 12.744 21.8714L13.156 23.8285ZM27.55 22.6499C31.208 22.6499 34.1015 22.7165 36.2386 22.848L36.3614 20.8518C34.1652 20.7167 31.2253 20.6499 27.55 20.6499V22.6499ZM36.2395 22.8481C38.4114 22.9797 40.2861 23.1927 41.8693 23.4835L42.2307 21.5164C40.5472 21.2072 38.5886 20.9868 36.3605 20.8518L36.2395 22.8481ZM79.7133 42.8999L79.0062 43.607L79.023 43.6239L79.0406 43.6399L79.7133 42.8999ZM79.4633 46.4999L78.6824 45.8752L78.6727 45.8874L78.6633 45.8999L79.4633 46.4999ZM77.0633 47.5499L77.0883 48.5496L77.0936 48.5495L77.0633 47.5499ZM69.9633 46.9499L70.1835 45.9745L69.4042 45.7985L69.0605 46.5198L69.9633 46.9499ZM61.3633 59.3499L62.0632 60.0642L62.0633 60.0641L61.3633 59.3499ZM43.5633 58.1999L44.4848 57.8115L44.4848 57.8115L43.5633 58.1999ZM42.2633 26.0499L43.2477 26.2257L43.2486 26.2205L42.2633 26.0499ZM43.5133 22.5499L42.768 21.8831L42.7659 21.8856L43.5133 22.5499ZM49.5633 25.5499L50.5497 25.7143L50.553 25.6942L50.5556 25.674L49.5633 25.5499ZM49.3133 53.4999L48.3588 53.7982L48.361 53.8054L48.3634 53.8126L49.3133 53.4999ZM58.8133 53.8499L59.5763 54.4964L59.5763 54.4964L58.8133 53.8499ZM64.4133 44.7999L65.319 45.2237L65.695 44.4202L64.942 43.9512L64.4133 44.7999ZM59.8133 39.8999L58.9218 40.353L58.9249 40.359L59.8133 39.8999ZM59.4633 26.2499L58.5529 25.8361L58.5495 25.8438L59.4633 26.2499ZM62.8133 22.1499L62.2815 21.303L62.2725 21.3088L62.8133 22.1499ZM72.6133 23.0999L71.834 23.7268L71.8423 23.7368L72.6133 23.0999ZM72.0133 41.9499L71.0747 41.6049L70.6595 42.7344L71.8459 42.9358L72.0133 41.9499ZM66.4633 39.7999L65.8653 40.6015L66.959 41.4174L67.4077 40.1288L66.4633 39.7999ZM67.8633 27.4999L66.9871 27.9819L66.9924 27.9915L66.9979 28.001L67.8633 27.4999ZM64.1633 28.0999L65.0402 28.5808L65.0464 28.5691L64.1633 28.0999ZM78.0633 43.3999C78.7235 43.3999 78.9488 43.5496 79.0062 43.607L80.4204 42.1928C79.8111 41.5836 78.9364 41.3999 78.0633 41.3999V43.3999ZM79.0406 43.6399C79.1816 43.768 79.2633 43.9242 79.2633 44.1999H81.2633C81.2633 43.409 80.9783 42.6985 80.386 42.16L79.0406 43.6399ZM79.2633 44.1999C79.2633 44.8433 79.0716 45.3888 78.6824 45.8752L80.2442 47.1246C80.9217 46.2778 81.2633 45.2899 81.2633 44.1999H79.2633ZM78.6633 45.8999C78.4006 46.2502 77.9339 46.5231 77.033 46.5504L77.0936 48.5495C78.3927 48.5101 79.526 48.083 80.2633 47.0999L78.6633 45.8999ZM77.0383 46.5503C74.4338 46.6154 72.1522 46.419 70.1835 45.9745L69.743 47.9254C71.9077 48.4142 74.3594 48.6178 77.0883 48.5496L77.0383 46.5503ZM69.0605 46.5198C66.736 51.398 63.9336 55.4303 60.6633 58.6358L62.0633 60.0641C65.5263 56.6696 68.4572 52.4352 70.866 47.3801L69.0605 46.5198ZM60.6634 58.6357C57.4436 61.7911 54.3309 63.2499 51.3133 63.2499V65.2499C55.029 65.2499 58.6163 63.4421 62.0632 60.0642L60.6634 58.6357ZM51.3133 63.2499C49.7891 63.2499 48.4964 62.812 47.3911 61.9492C46.2716 61.0752 45.2899 59.7218 44.4848 57.8115L42.6418 58.5883C43.5366 60.7114 44.6966 62.383 46.1604 63.5257C47.6385 64.6795 49.3708 65.2499 51.3133 65.2499V63.2499ZM44.4848 57.8115C42.8576 53.951 42.0133 48.6508 42.0133 41.8499H40.0133C40.0133 48.7825 40.869 54.3822 42.6418 58.5883L44.4848 57.8115ZM42.0133 41.8499C42.0133 36.029 42.4268 30.8226 43.2477 26.2257L41.2789 25.8741C40.4331 30.6106 40.0133 35.9376 40.0133 41.8499H42.0133ZM43.2486 26.2205C43.5465 24.4993 43.9304 23.5859 44.2607 23.2143L42.7659 21.8856C42.0295 22.714 41.58 24.1339 41.2779 25.8794L43.2486 26.2205ZM44.2585 23.2167C44.5501 22.8908 45.1546 22.5999 46.3633 22.5999V20.5999C44.9053 20.5999 43.6098 20.9424 42.768 21.8831L44.2585 23.2167ZM46.3633 22.5999C47.3421 22.5999 47.8896 22.8144 48.1847 23.0693C48.4517 23.2999 48.6633 23.6954 48.6633 24.4499H50.6633C50.6633 23.3045 50.3249 22.275 49.4919 21.5556C48.687 20.8605 47.5844 20.5999 46.3633 20.5999V22.5999ZM48.6633 24.4499C48.6633 24.5791 48.6383 24.8873 48.571 25.4259L50.5556 25.674C50.6216 25.1459 50.6633 24.7207 50.6633 24.4499H48.6633ZM48.5769 25.3855C47.57 31.4271 47.0633 36.9166 47.0633 41.8499H49.0633C49.0633 37.05 49.5566 31.6728 50.5497 25.7143L48.5769 25.3855ZM47.0633 41.8499C47.0633 46.9822 47.48 50.986 48.3588 53.7982L50.2678 53.2017C49.4799 50.6805 49.0633 46.9176 49.0633 41.8499H47.0633ZM48.3634 53.8126C49.2666 56.557 50.7836 58.4499 53.1633 58.4499V56.4499C52.143 56.4499 51.0933 55.7095 50.2632 53.1873L48.3634 53.8126ZM53.1633 58.4499C55.3578 58.4499 57.4974 56.9501 59.5763 54.4964L58.0503 53.2035C56.0625 55.5498 54.4355 56.4499 53.1633 56.4499V58.4499ZM59.5763 54.4964C61.68 52.0132 63.5913 48.9164 65.319 45.2237L63.5075 44.3761C61.8353 47.9501 60.0132 50.8866 58.0503 53.2035L59.5763 54.4964ZM64.942 43.9512C63.0513 42.7733 61.6471 41.2707 60.7017 39.4409L58.9249 40.359C60.0462 42.5292 61.7086 44.2932 63.8845 45.6487L64.942 43.9512ZM60.7048 39.4469C59.7531 37.5742 59.2633 35.4002 59.2633 32.8999H57.2633C57.2633 35.6663 57.8068 38.159 58.9218 40.353L60.7048 39.4469ZM59.2633 32.8999C59.2633 30.3618 59.6496 28.2929 60.3771 26.6561L58.5495 25.8438C57.6769 27.807 57.2633 30.1714 57.2633 32.8999H59.2633ZM60.3736 26.6637C61.1443 24.9684 62.1469 23.7671 63.354 22.9911L62.2725 21.3088C60.6796 22.3328 59.449 23.8649 58.5529 25.8361L60.3736 26.6637ZM63.345 22.9968C64.615 22.1994 66.0133 21.7999 67.5633 21.7999V19.7999C65.6466 19.7999 63.8782 20.3005 62.2815 21.303L63.345 22.9968ZM67.5633 21.7999C69.4229 21.7999 70.8081 22.4512 71.8341 23.7267L73.3925 22.4732C71.9518 20.682 69.9703 19.7999 67.5633 19.7999V21.7999ZM71.8423 23.7368C72.9172 25.038 73.5133 26.8863 73.5133 29.3999H75.5133C75.5133 26.5803 74.8427 24.2286 73.3842 22.4631L71.8423 23.7368ZM73.5133 29.3999C73.5133 33.0894 72.7109 37.1545 71.0747 41.6049L72.9519 42.295C74.649 37.6787 75.5133 33.3771 75.5133 29.3999H73.5133ZM71.8459 42.9358C73.6801 43.2473 75.7545 43.3999 78.0633 43.3999V41.3999C75.8388 41.3999 73.8798 41.2526 72.1807 40.9641L71.8459 42.9358ZM62.3133 32.5499C62.3133 36.0457 63.4501 38.7997 65.8653 40.6015L67.0612 38.9984C65.2764 37.6669 64.3133 35.5875 64.3133 32.5499H62.3133ZM67.4077 40.1288C68.7245 36.3472 69.4133 33.1431 69.4133 30.5499H67.4133C67.4133 32.8234 66.8021 35.786 65.5189 39.4711L67.4077 40.1288ZM69.4133 30.5499C69.4133 29.1079 69.2325 27.8691 68.7287 26.9989L66.9979 28.001C67.2274 28.3975 67.4133 29.1919 67.4133 30.5499H69.4133ZM68.7395 27.018C68.2392 26.1084 67.4411 25.4999 66.3633 25.4999V27.4999C66.5521 27.4999 66.754 27.5581 66.9871 27.9819L68.7395 27.018ZM66.3633 25.4999C64.9673 25.4999 63.9519 26.3664 63.2802 27.6308L65.0464 28.5691C65.508 27.7002 65.9593 27.4999 66.3633 27.4999V25.4999ZM63.2865 27.6191C62.6029 28.8656 62.3133 30.5442 62.3133 32.5499H64.3133C64.3133 30.689 64.5903 29.4009 65.0401 28.5808L63.2865 27.6191Z" fill="#2C2C2C"/>
<path d="M169.153 56.7358C168.321 56.8472 167.588 56.7923 166.954 56.5712C166.562 56.4119 166.35 56.193 166.321 55.9146C166.291 55.6362 166.336 55.4065 166.458 55.2256C166.577 55.0214 166.763 54.9023 167.018 54.8682C167.249 54.8373 167.594 54.8852 168.054 55.012C168.559 55.1326 168.87 55.1852 168.985 55.1697C169.425 55.1109 169.798 54.8727 170.105 54.4551C170.433 54.0112 170.667 53.4621 170.808 52.8078C171.1 51.5921 171.196 50.5202 171.097 49.5922C170.99 48.5946 170.716 47.5723 170.275 46.5252C169.855 45.4518 169.323 44.4287 168.679 43.4559L168.005 42.4165C167.302 41.3339 166.753 40.4778 166.357 39.8483C165.984 39.2158 165.64 38.5205 165.324 37.7627C164.857 36.6955 164.568 35.6399 164.456 34.5959C164.367 33.7607 164.421 32.9533 164.619 32.1737C164.84 31.3911 165.212 30.7059 165.735 30.1181C166.254 29.4839 166.941 29.1096 167.797 28.9951C168.213 28.9394 168.631 29.0128 169.052 29.2154C169.47 29.3948 169.78 29.6593 169.981 30.0088L169.47 30.8186C168.869 30.899 168.405 30.8434 168.08 30.6516C167.669 30.7537 167.321 31.012 167.037 31.4265C166.774 31.8148 166.586 32.2517 166.474 32.7374C166.382 33.1968 166.36 33.6469 166.407 34.0877C166.502 34.9693 166.715 35.8586 167.045 36.7557C167.397 37.6265 167.813 38.4415 168.293 39.2009L171.244 43.748C171.727 44.5306 172.14 45.4285 172.483 46.4415C172.826 47.4546 173.054 48.4831 173.166 49.5272C173.33 51.0584 173.114 52.5463 172.519 53.9909C172.2 54.7396 171.75 55.3529 171.168 55.8308C170.588 56.332 169.917 56.6336 169.153 56.7358ZM186.647 53.6183C185.861 53.7235 185.262 51.8621 184.852 48.034L184.674 46.0458L184.537 44.4403L184.525 44.3359L184.488 43.9879C184.491 43.7992 184.479 43.5773 184.452 43.322C184.447 43.2756 184.406 43.2223 184.329 43.162C184.252 43.1017 184.211 43.0483 184.206 43.0019L184.203 42.9671C184.092 43.029 183.886 43.08 183.586 43.1203C183.285 43.1605 182.91 43.1636 182.461 43.1296C182.319 43.125 181.943 43.1165 181.332 43.1041L181.761 47.1062C181.826 47.7094 181.962 48.656 182.171 49.9459C182.377 51.2126 182.514 52.1592 182.581 52.7856C182.619 53.1336 182.559 53.4476 182.401 53.7276C182.243 54.0075 182.014 54.1676 181.713 54.2078C181.274 54.2666 180.916 53.8792 180.639 53.0456C180.359 52.1887 180.143 51.0527 179.992 49.6375L179.759 46.8093C179.697 46.0174 179.619 45.1807 179.525 44.2991L179.461 43.7075L179.409 43.2203C179.369 42.8491 179.331 42.607 179.296 42.4941L179.277 42.3201L179.165 40.2877C179.07 39.4061 178.895 38.1 178.639 36.3692C178.383 34.6385 178.208 33.3323 178.113 32.4507C178.083 32.1723 178.15 31.9163 178.312 31.6828C178.475 31.4492 178.695 31.3139 178.972 31.2767C179.712 31.1777 180.157 31.8242 180.306 33.2162L180.7 37.5407C180.793 38.8461 180.925 40.2992 181.097 41.9001C181.456 41.9696 182.087 41.9441 182.989 41.8234L184.273 41.6516C184.304 41.5062 184.312 41.3639 184.297 41.2247C184.178 40.1111 183.932 38.4732 183.559 36.3109C183.178 34.291 182.919 32.643 182.782 31.367C182.755 31.1118 182.825 30.8906 182.993 30.7034C183.181 30.49 183.414 30.3647 183.691 30.3275C183.853 30.3059 184.091 30.3329 184.404 30.4087L184.731 30.5061C185.084 33.8006 185.672 38.1815 186.493 43.6491L187.749 52.4118C187.784 52.7366 187.684 53.0088 187.45 53.2284C187.238 53.445 186.971 53.5749 186.647 53.6183ZM198.931 52.6452C198.33 52.7257 197.753 52.6027 197.202 52.2764C196.654 51.9733 196.183 51.5186 195.789 50.9123C194.967 49.5868 194.385 48.0997 194.044 46.451C193.667 44.9012 193.399 43.3955 193.243 41.9339C193.213 41.6555 193.2 41.4219 193.203 41.2332L193.136 40.6068C193.123 40.4908 193.105 40.4344 193.082 40.4375L193.015 39.8111L192.788 37.3704C192.732 36.6249 192.698 35.4293 192.685 33.7836C192.681 32.6545 192.832 31.5401 193.136 30.4404C193.248 29.9548 193.419 29.5789 193.648 29.3128C193.875 29.0236 194.151 28.8573 194.475 28.814C195.4 28.6902 196.251 28.7528 197.028 29.0018C197.803 29.2275 198.477 29.608 199.051 30.1431C199.576 30.6612 200.046 31.3278 200.462 32.1429C200.875 32.9348 201.202 33.797 201.443 34.7297C201.686 35.6855 201.867 36.7087 201.983 37.7991L202.013 38.0775C202.09 38.7967 202.172 39.4447 202.257 40.0217L202.505 42.0006C203.221 48.6823 202.03 52.2305 198.931 52.6452ZM198.635 51.2021C199.052 51.1464 199.416 50.933 199.728 50.5618C200.038 50.1673 200.254 49.6677 200.377 49.063C200.689 47.821 200.818 46.5093 200.764 45.1282C200.753 43.9295 200.701 42.9009 200.609 42.0425C200.497 40.9985 200.269 39.6405 199.926 37.9686C199.595 36.2007 199.383 34.876 199.288 33.9944L199.221 33.368C199.08 32.4925 198.697 31.7672 198.073 31.1918C197.471 30.6134 196.777 30.3768 195.991 30.482C195.204 30.5872 194.733 31.1093 194.575 32.0481C194.421 32.7983 194.405 33.7418 194.527 34.8786C194.574 35.3194 194.626 35.689 194.681 35.9875L194.782 36.9272L194.884 38.5373C194.89 39.0307 194.924 39.5674 194.986 40.1474C195.121 41.4002 195.289 42.6368 195.49 43.8571C195.769 45.5847 196.182 47.2474 196.729 48.8451C197.283 50.5124 197.918 51.2981 198.635 51.2021ZM212.688 50.8749C212.226 50.9368 211.746 50.2949 211.25 48.9493C210.817 47.76 210.4 46.2744 209.998 44.4926C209.616 42.6845 209.172 40.4024 208.665 37.6462C208.356 35.8521 207.986 33.9365 207.556 31.8996C207.21 30.2044 206.895 29.1287 206.612 28.6724C206.775 28.227 207.088 27.9733 207.551 27.9114C208.291 27.8124 208.743 28.5285 208.907 30.0597C209.101 31.8693 209.628 34.4817 210.487 37.8967C211.343 41.2886 211.891 43.7686 212.129 45.337L212.176 44.1306C212.24 42.5452 212.28 41.0573 212.295 39.6668C212.331 38.25 212.321 36.7335 212.265 35.1172C212.235 33.3091 212.127 31.5351 211.94 29.795L212.832 29.2521C213.133 29.2119 213.384 29.2606 213.587 29.3982C213.81 29.5096 213.936 29.7044 213.966 29.9828L213.996 30.2612C214.505 31.5109 214.959 32.8975 215.357 34.421C215.776 35.9182 216.19 37.6984 216.599 39.7617C216.909 41.3439 217.231 42.8187 217.566 44.1859C217.672 41.0183 217.481 37.1608 216.993 32.6136C216.916 31.8944 216.914 31.0004 216.987 29.9316C217.034 28.8427 217.022 27.9619 216.95 27.2891C216.858 27.0896 216.802 26.897 216.782 26.7114C216.723 26.1546 217.04 25.8298 217.733 25.7369C218.011 25.6998 218.238 25.74 218.415 25.8576C218.592 25.9751 218.694 26.1615 218.721 26.4167L218.777 26.9387C218.815 27.2867 218.812 27.5929 218.77 27.8574L218.789 28.0314C218.588 28.9996 218.552 30.087 218.681 31.2934L218.954 33.8338C219.111 35.2954 219.171 37.4995 219.135 40.4459C219.069 43.3259 219.11 45.4619 219.259 46.8539L219.327 47.4803C219.384 48.0139 219.375 48.474 219.299 48.8607C219.21 49.3433 218.899 49.6202 218.367 49.6913C217.997 49.7409 217.696 49.6635 217.463 49.4594C217.25 49.2289 217.124 48.9281 217.084 48.5569C216.883 46.6777 216.425 44.268 215.711 41.3277C215.358 40.01 214.993 38.6822 214.615 37.3443L213.668 33.7645C213.648 34.4497 213.672 35.1171 213.742 35.7667C213.881 37.0659 213.973 38.7951 214.017 40.9543C214.061 43.1135 213.994 45.2286 213.818 47.2996C213.62 49.6089 213.243 50.8006 212.688 50.8749Z" fill="#FBC700"/>
<path d="M166.954 56.5712L166.757 57.037L166.769 57.0415L166.78 57.0455L166.954 56.5712ZM166.458 55.2256L166.869 55.4988L166.878 55.4851L166.886 55.4708L166.458 55.2256ZM168.054 55.012L167.91 55.4959L167.919 55.4982L167.927 55.5002L168.054 55.012ZM170.105 54.4551L169.708 54.1627L169.707 54.1635L170.105 54.4551ZM170.808 52.8078L170.324 52.7018L170.321 52.7135L170.808 52.8078ZM170.275 46.5252L169.81 46.7192L169.815 46.7307L170.275 46.5252ZM168.679 43.4559L168.26 43.7375L168.262 43.7412L168.679 43.4559ZM168.005 42.4165L167.585 42.6982L167.585 42.6982L168.005 42.4165ZM166.357 39.8483L165.926 40.1122L165.93 40.1183L165.934 40.1242L166.357 39.8483ZM165.324 37.7627L165.784 37.5588L165.781 37.5511L165.324 37.7627ZM164.619 32.1737L164.139 32.048L164.136 32.0613L164.619 32.1737ZM165.735 30.1181L166.103 30.4475L166.11 30.4393L166.117 30.4308L165.735 30.1181ZM169.052 29.2154L168.827 29.6688L168.837 29.6734L168.847 29.6776L169.052 29.2154ZM169.981 30.0088L170.4 30.2701L170.565 30.0097L170.414 29.7488L169.981 30.0088ZM169.47 30.8186L169.523 31.3157L169.76 31.2841L169.889 31.0798L169.47 30.8186ZM168.08 30.6516L168.34 30.2171L168.168 30.1161L167.972 30.1648L168.08 30.6516ZM167.037 31.4266L166.629 31.1491L166.627 31.1511L167.037 31.4266ZM166.474 32.7374L165.988 32.6358L165.987 32.6433L165.985 32.6509L166.474 32.7374ZM167.045 36.7557L166.578 36.9406L166.58 36.9476L166.583 36.9545L167.045 36.7557ZM168.293 39.2009L167.871 39.4778L167.874 39.4826L168.293 39.2009ZM171.244 43.748L171.669 43.4757L171.663 43.4664L171.244 43.748ZM172.483 46.4415L172.011 46.6141L172.483 46.4415ZM172.519 53.9909L172.976 54.1784L172.978 54.173L172.519 53.9909ZM171.168 55.8308L170.858 55.4453L170.848 55.454L171.168 55.8308ZM169.1 56.2386C168.326 56.3421 167.674 56.2874 167.128 56.0968L166.78 57.0455C167.501 57.2972 168.315 57.3522 169.207 57.2329L169.1 56.2386ZM167.15 56.1053C166.829 55.9747 166.818 55.8635 166.816 55.8483L165.825 55.9809C165.883 56.5226 166.295 56.8491 166.757 57.037L167.15 56.1053ZM166.816 55.8483C166.795 55.6521 166.833 55.5523 166.869 55.4988L166.047 54.9524C165.84 55.2608 165.786 55.6203 165.825 55.9809L166.816 55.8483ZM166.886 55.4708C166.916 55.4195 166.955 55.381 167.071 55.3654L166.964 54.3711C166.572 54.4236 166.237 54.6233 166.029 54.9803L166.886 55.4708ZM167.071 55.3654C167.197 55.3485 167.461 55.372 167.91 55.4959L168.197 54.5281C167.727 54.3984 167.301 54.3261 166.964 54.3711L167.071 55.3654ZM167.927 55.5002C168.184 55.5616 168.4 55.6077 168.571 55.6366C168.719 55.6616 168.896 55.686 169.039 55.6669L168.932 54.6726C168.958 54.6692 168.96 54.6725 168.918 54.6689C168.882 54.6658 168.831 54.6591 168.76 54.6472C168.62 54.6235 168.428 54.583 168.18 54.5238L167.927 55.5002ZM169.039 55.6669C169.637 55.5869 170.127 55.2581 170.503 54.7467L169.707 54.1635C169.469 54.4873 169.213 54.635 168.932 54.6726L169.039 55.6669ZM170.503 54.7475C170.882 54.233 171.142 53.6125 171.295 52.9021L170.321 52.7135C170.192 53.3117 169.983 53.7893 169.708 54.1627L170.503 54.7475ZM171.293 52.9138C171.594 51.659 171.7 50.5267 171.592 49.5259L170.601 49.6585C170.693 50.5138 170.606 51.5252 170.324 52.7018L171.293 52.9138ZM171.592 49.5259C171.479 48.474 171.192 47.4049 170.735 46.3197L169.815 46.7307C170.24 47.7396 170.5 48.7152 170.601 49.6585L171.592 49.5259ZM170.739 46.3312C170.307 45.2252 169.759 44.1716 169.096 43.1706L168.262 43.7412C168.887 44.6858 169.403 45.6784 169.811 46.7192L170.739 46.3312ZM169.098 43.1742L168.424 42.1349L167.585 42.6982L168.26 43.7375L169.098 43.1742ZM168.424 42.1349C167.722 41.053 167.174 40.1991 166.78 39.5725L165.934 40.1242C166.331 40.7565 166.882 41.6148 167.585 42.6982L168.424 42.1349ZM166.787 39.5845C166.427 38.9732 166.092 38.2983 165.784 37.5588L164.863 37.9666C165.187 38.7428 165.541 39.4583 165.926 40.1122L166.787 39.5845ZM165.781 37.5511C165.332 36.5246 165.058 35.5178 164.952 34.5296L163.961 34.6622C164.079 35.762 164.382 36.8664 164.867 37.9743L165.781 37.5511ZM164.952 34.5296C164.868 33.7507 164.919 33.0041 165.101 32.2862L164.136 32.0613C163.922 32.9025 163.865 33.7706 163.961 34.6622L164.952 34.5296ZM165.098 32.2994C165.298 31.5892 165.634 30.9744 166.103 30.4475L165.368 29.7887C164.79 30.4374 164.381 31.193 164.139 32.0481L165.098 32.2994ZM166.117 30.4308C166.547 29.9052 167.113 29.5909 167.85 29.4923L167.743 28.498C166.769 28.6283 165.961 29.0627 165.354 29.8054L166.117 30.4308ZM167.85 29.4923C168.159 29.4509 168.482 29.5023 168.827 29.6688L169.276 28.762C168.781 28.5234 168.267 28.4279 167.743 28.498L167.85 29.4923ZM168.847 29.6776C169.182 29.8214 169.406 30.0211 169.549 30.2689L170.414 29.7488C170.154 29.2975 169.758 28.9682 169.257 28.7533L168.847 29.6776ZM169.563 29.7476L169.051 30.5573L169.889 31.0798L170.4 30.2701L169.563 29.7476ZM169.417 30.3214C168.865 30.3952 168.531 30.3296 168.34 30.2171L167.82 31.0861C168.28 31.3571 168.872 31.4028 169.523 31.3157L169.417 30.3214ZM167.972 30.1648C167.418 30.3023 166.971 30.6494 166.629 31.1491L167.445 31.704C167.671 31.3746 167.919 31.2051 168.188 31.1384L167.972 30.1648ZM166.627 31.1511C166.326 31.5957 166.114 32.0923 165.988 32.6358L166.959 32.839C167.058 32.4111 167.221 32.0339 167.446 31.702L166.627 31.1511ZM165.985 32.6509C165.884 33.1583 165.859 33.66 165.912 34.154L166.903 34.0214C166.861 33.6338 166.88 33.2352 166.962 32.8239L165.985 32.6509ZM165.912 34.154C166.011 35.0795 166.234 36.0086 166.578 36.9406L167.513 36.5708C167.195 35.7086 166.993 34.859 166.903 34.0214L165.912 34.154ZM166.583 36.9545C166.945 37.8513 167.374 38.6927 167.871 39.4778L168.716 38.9241C168.252 38.1904 167.849 37.4016 167.508 36.5569L166.583 36.9545ZM167.874 39.4826L170.825 44.0297L171.663 43.4664L168.712 38.9193L167.874 39.4826ZM170.819 44.0203C171.279 44.7672 171.678 45.6307 172.011 46.6141L172.955 46.269C172.602 45.2263 172.174 44.2941 171.669 43.4758L170.819 44.0203ZM172.011 46.6141C172.343 47.5937 172.562 48.5866 172.67 49.5935L173.661 49.4608C173.545 48.3797 173.31 47.3155 172.955 46.269L172.011 46.6141ZM172.67 49.5935C172.825 51.0404 172.622 52.4429 172.059 53.8089L172.978 54.173C173.606 52.6497 173.835 51.0764 173.661 49.4608L172.67 49.5935ZM172.061 53.8035C171.773 54.4816 171.371 55.0248 170.858 55.4455L171.477 56.2162C172.129 55.6809 172.627 54.9975 172.976 54.1784L172.061 53.8035ZM170.848 55.454C170.346 55.8886 169.767 56.1493 169.1 56.2386L169.207 57.2329C170.066 57.1179 170.83 56.7754 171.487 56.2077L170.848 55.454ZM184.852 48.034L184.355 48.0916L184.356 48.1003L184.852 48.034ZM184.674 46.0458L184.177 46.1013L184.177 46.1034L184.674 46.0458ZM184.537 44.4403L185.033 44.3848L185.032 44.374L184.537 44.4403ZM184.488 43.9879L183.99 43.992L183.989 44.0233L183.992 44.0542L184.488 43.9879ZM184.329 43.162L184.016 43.5604L184.016 43.5604L184.329 43.162ZM184.203 42.9671L184.698 42.9008L184.619 42.1665L183.969 42.5301L184.203 42.9671ZM182.461 43.1296L182.51 42.6295L182.5 42.6287L182.489 42.6283L182.461 43.1296ZM181.332 43.1041L181.354 42.6027L180.774 42.591L180.836 43.1705L181.332 43.1041ZM182.171 49.9459L181.679 50.0387L181.679 50.0392L182.171 49.9459ZM182.401 53.7276L181.969 53.4888L182.401 53.7276ZM180.639 53.0456L180.165 53.2129L180.166 53.2154L180.639 53.0456ZM179.992 49.6375L179.495 49.6915L179.496 49.7038L179.992 49.6375ZM179.759 46.8093L179.262 46.861L179.262 46.8634L179.759 46.8093ZM179.296 42.4941L178.8 42.5604L178.805 42.6096L178.82 42.6566L179.296 42.4941ZM179.277 42.3201L178.779 42.3606L178.78 42.3736L178.782 42.3864L179.277 42.3201ZM179.165 40.2877L179.662 40.2472L179.662 40.2343L179.66 40.2214L179.165 40.2877ZM178.639 36.3692L178.146 36.4554L178.639 36.3692ZM178.312 31.6828L177.906 31.402L178.312 31.6828ZM180.306 33.2162L180.803 33.1579L180.802 33.1499L180.306 33.2162ZM180.7 37.5407L181.197 37.4922L181.196 37.4824L180.7 37.5407ZM181.097 41.9001L180.601 41.9664L180.64 42.3247L180.991 42.3927L181.097 41.9001ZM184.273 41.6516L184.326 42.1488L184.683 42.101L184.76 41.7459L184.273 41.6516ZM183.559 36.3109L184.05 36.2131L184.049 36.2054L183.559 36.3109ZM182.993 30.7034L183.359 31.0339L183.362 31.0309L182.993 30.7034ZM184.404 30.4087L184.556 29.9275L184.544 29.9239L184.532 29.9209L184.404 30.4087ZM184.731 30.5061L185.227 30.4398L185.192 30.1167L184.884 30.0249L184.731 30.5061ZM186.493 43.6491L186.986 43.5651L186.985 43.5618L186.493 43.6491ZM187.749 52.4118L188.245 52.3455L188.244 52.3366L188.243 52.3278L187.749 52.4118ZM187.45 53.2285L187.115 52.8654L187.107 52.8733L187.098 52.8817L187.45 53.2285ZM186.594 53.1211C186.636 53.1154 186.603 53.1585 186.486 53.0106C186.366 52.8582 186.226 52.5804 186.083 52.1358C185.8 51.2548 185.552 49.8736 185.347 47.9677L184.356 48.1003C184.562 50.0225 184.819 51.486 185.134 52.4664C185.29 52.9526 185.473 53.3596 185.699 53.6463C185.929 53.9374 186.265 54.1737 186.7 54.1154L186.594 53.1211ZM185.348 47.9764L185.17 45.9882L184.177 46.1034L184.355 48.0916L185.348 47.9764ZM185.17 45.9903L185.033 44.3848L184.04 44.4958L184.177 46.1013L185.17 45.9903ZM185.032 44.374L185.021 44.2696L184.03 44.4022L184.041 44.5066L185.032 44.374ZM185.021 44.2696L184.984 43.9216L183.992 44.0542L184.03 44.4022L185.021 44.2696ZM184.986 43.9838C184.99 43.7683 184.976 43.5247 184.947 43.2557L183.956 43.3884C183.982 43.6298 183.992 43.8301 183.99 43.992L184.986 43.9838ZM184.947 43.2557C184.932 43.1103 184.866 43.0018 184.815 42.9346C184.761 42.8649 184.699 42.8084 184.642 42.7635L184.016 43.5604C184.036 43.5759 184.032 43.5762 184.02 43.5599C184.009 43.546 183.967 43.4874 183.956 43.3884L184.947 43.2557ZM184.642 42.7635C184.622 42.7481 184.626 42.7478 184.638 42.7641C184.649 42.7779 184.691 42.8365 184.702 42.9356L183.711 43.0682C183.726 43.2137 183.792 43.3222 183.843 43.3894C183.897 43.459 183.959 43.5155 184.016 43.5604L184.642 42.7635ZM184.702 42.9356L184.698 42.9008L183.707 43.0334L183.711 43.0682L184.702 42.9356ZM183.969 42.5301C183.971 42.5289 183.942 42.544 183.858 42.565C183.779 42.5846 183.671 42.6045 183.532 42.6231L183.639 43.6174C183.938 43.5774 184.232 43.5183 184.436 43.4041L183.969 42.5301ZM183.532 42.6231C183.278 42.6571 182.941 42.662 182.51 42.6295L182.411 43.6297C182.879 43.6652 183.292 43.6639 183.639 43.6174L183.532 42.6231ZM182.489 42.6283C182.344 42.6236 181.964 42.615 181.354 42.6027L181.309 43.6056C181.922 43.618 182.294 43.6264 182.432 43.6309L182.489 42.6283ZM180.836 43.1705L181.265 47.1725L182.257 47.0399L181.827 43.0378L180.836 43.1705ZM181.265 47.1725C181.332 47.7899 181.47 48.7476 181.679 50.0387L182.663 49.8531C182.455 48.5643 182.32 47.6289 182.257 47.0399L181.265 47.1725ZM181.679 50.0392C181.885 51.3042 182.02 52.2397 182.086 52.8519L183.077 52.7193C183.008 52.0787 182.87 51.1211 182.663 49.8526L181.679 50.0392ZM182.086 52.8519C182.113 53.1062 182.068 53.3116 181.969 53.4888L182.833 53.9663C183.049 53.5836 183.124 53.161 183.077 52.7193L182.086 52.8519ZM181.969 53.4888C181.886 53.6353 181.794 53.6928 181.66 53.7107L181.767 54.705C182.234 54.6424 182.6 54.3797 182.833 53.9663L181.969 53.4888ZM181.66 53.7107C181.632 53.7144 181.581 53.7195 181.484 53.6147C181.373 53.4942 181.241 53.2642 181.112 52.8757L180.166 53.2154C180.313 53.6606 180.499 54.0411 180.746 54.308C181.008 54.5907 181.355 54.76 181.767 54.705L181.66 53.7107ZM181.113 52.8783C180.848 52.0672 180.637 50.9691 180.487 49.5711L179.496 49.7038C179.65 51.1363 179.87 52.3103 180.165 53.2129L181.113 52.8783ZM180.488 49.5834L180.255 46.7553L179.262 46.8634L179.495 49.6915L180.488 49.5834ZM180.256 46.7577C180.194 45.9604 180.115 45.1187 180.02 44.2328L179.029 44.3654C179.123 45.2427 179.201 46.0745 179.262 46.861L180.256 46.7577ZM180.02 44.2328L179.957 43.6411L178.966 43.7738L179.029 44.3654L180.02 44.2328ZM179.957 43.6411L179.904 43.1539L178.913 43.2866L178.966 43.7738L179.957 43.6411ZM179.904 43.1539C179.866 42.7928 179.824 42.4998 179.771 42.3316L178.82 42.6566C178.838 42.7142 178.872 42.9053 178.913 43.2866L179.904 43.1539ZM179.791 42.4278L179.773 42.2538L178.782 42.3864L178.8 42.5604L179.791 42.4278ZM179.775 42.2795L179.662 40.2472L178.667 40.3283L178.779 42.3606L179.775 42.2795ZM179.66 40.2214C179.565 39.3296 179.388 38.0154 179.132 36.2831L178.146 36.4554C178.402 38.1845 178.576 39.4827 178.669 40.3541L179.66 40.2214ZM179.132 36.2831C178.876 34.5539 178.702 33.2557 178.609 32.3844L177.617 32.517C177.713 33.4089 177.89 34.7231 178.146 36.4554L179.132 36.2831ZM178.609 32.3844C178.592 32.2282 178.626 32.0956 178.718 31.9635L177.906 31.402C177.673 31.737 177.574 32.1164 177.617 32.517L178.609 32.3844ZM178.718 31.9635C178.798 31.8482 178.89 31.792 179.026 31.7739L178.919 30.7796C178.499 30.8357 178.151 31.0502 177.906 31.402L178.718 31.9635ZM179.026 31.7739C179.13 31.7599 179.201 31.7743 179.255 31.799C179.31 31.8244 179.377 31.8751 179.449 31.9798C179.602 32.2028 179.739 32.6145 179.811 33.2825L180.802 33.1499C180.724 32.4259 180.564 31.8183 180.273 31.3948C180.123 31.1763 179.931 30.9969 179.689 30.8855C179.447 30.7733 179.184 30.744 178.919 30.7796L179.026 31.7739ZM179.81 33.2745L180.203 37.599L181.196 37.4824L180.803 33.1579L179.81 33.2745ZM180.203 37.5893C180.296 38.9018 180.429 40.3609 180.601 41.9664L181.593 41.8337C181.421 40.2376 181.29 38.7905 181.197 37.4922L180.203 37.5893ZM180.991 42.3927C181.438 42.4793 182.143 42.4409 183.042 42.3205L182.936 41.3262C182.031 41.4472 181.475 41.46 181.203 41.4075L180.991 42.3927ZM183.042 42.3205L184.326 42.1488L184.219 41.1545L182.936 41.3262L183.042 42.3205ZM184.76 41.7459C184.802 41.5505 184.814 41.3539 184.793 41.1584L183.802 41.2911C183.811 41.374 183.806 41.462 183.786 41.5573L184.76 41.7459ZM184.793 41.1584C184.672 40.0285 184.423 38.3779 184.05 36.2131L183.068 36.4088C183.44 38.5685 183.684 40.1938 183.802 41.2911L184.793 41.1584ZM184.049 36.2054C183.669 34.1917 183.413 32.5581 183.278 31.3007L182.287 31.4333C182.426 32.7279 182.687 34.3903 183.069 36.4165L184.049 36.2054ZM183.278 31.3007C183.265 31.1831 183.293 31.108 183.359 31.0339L182.626 30.373C182.357 30.6732 182.245 31.0404 182.287 31.4333L183.278 31.3007ZM183.362 31.0309C183.468 30.9102 183.589 30.8455 183.745 30.8247L183.638 29.8304C183.239 29.8838 182.894 30.0698 182.624 30.3759L183.362 31.0309ZM183.745 30.8247C183.811 30.8158 183.975 30.8238 184.276 30.8965L184.532 29.9209C184.206 29.8421 183.895 29.796 183.638 29.8304L183.745 30.8247ZM184.251 30.8899L184.578 30.9874L184.884 30.0249L184.556 29.9275L184.251 30.8899ZM184.235 30.5724C184.59 33.8769 185.178 38.2657 186 43.7363L186.985 43.5618C186.165 38.0973 185.579 33.7242 185.227 30.4398L184.235 30.5724ZM185.999 43.733L187.256 52.4957L188.243 52.3278L186.986 43.5651L185.999 43.733ZM187.254 52.4781C187.272 52.6493 187.227 52.7602 187.115 52.8654L187.784 53.5915C188.141 53.2574 188.296 52.8238 188.245 52.3455L187.254 52.4781ZM187.098 52.8817C186.975 53.0081 186.816 53.0914 186.594 53.1211L186.7 54.1154C187.125 54.0585 187.502 53.8819 187.801 53.5752L187.098 52.8817ZM197.202 52.2764L197.463 51.8425L197.457 51.8388L197.451 51.8353L197.202 52.2764ZM195.789 50.9123L195.364 51.1857L195.37 51.194L195.789 50.9123ZM194.044 46.451L194.532 46.3369L194.53 46.3284L194.528 46.32L194.044 46.451ZM193.203 41.2332L193.701 41.2291L193.702 41.1979L193.698 41.1669L193.203 41.2332ZM193.082 40.4375L192.587 40.5038L192.64 41.0009L193.136 40.9346L193.082 40.4375ZM193.015 39.8111L192.519 39.8703L192.519 39.8774L193.015 39.8111ZM192.788 37.3704L192.291 37.4212L192.292 37.4296L192.788 37.3704ZM192.685 33.7836L192.187 33.7981L192.187 33.8001L192.685 33.7836ZM193.136 30.4404L193.616 30.5635L193.619 30.5528L193.621 30.5421L193.136 30.4404ZM193.648 29.3128L194.021 29.6361L194.029 29.627L194.037 29.6175L193.648 29.3128ZM197.028 29.0018L196.866 29.4802L196.879 29.4838L197.028 29.0018ZM199.051 30.1431L199.405 29.7806L199.395 29.7714L199.051 30.1431ZM200.462 32.1429L200.017 32.3809L200.019 32.3849L200.462 32.1429ZM201.443 34.7297L201.926 34.5937L201.926 34.5921L201.443 34.7297ZM202.257 40.0217L202.752 39.9466L202.75 39.9355L202.257 40.0217ZM202.505 42.0006L203 41.9343L202.999 41.9256L202.505 42.0006ZM199.728 50.5618L200.105 50.8799L200.111 50.8733L200.116 50.8664L199.728 50.5618ZM200.377 49.063L199.894 48.9515L199.891 48.963L199.888 48.9746L200.377 49.063ZM200.764 45.1282L200.265 45.1456L200.265 45.1532L200.266 45.1607L200.764 45.1282ZM199.926 37.9686L199.436 38.0733L199.437 38.082L199.926 37.9686ZM199.221 33.368L199.717 33.3016L199.715 33.2886L199.713 33.2756L199.221 33.368ZM198.073 31.1918L197.723 31.5587L197.731 31.5657L198.073 31.1918ZM194.575 32.0481L195.063 32.1376L195.065 32.1285L195.067 32.1193L194.575 32.0481ZM194.681 35.9875L195.177 35.9212L195.175 35.9021L195.171 35.8833L194.681 35.9875ZM194.782 36.9272L195.279 36.8825L195.279 36.8716L195.277 36.8608L194.782 36.9272ZM194.884 38.5373L195.383 38.5184L195.382 38.5055L195.382 38.4926L194.884 38.5373ZM195.49 43.8571L195.982 43.7644L195.982 43.7628L195.49 43.8571ZM196.729 48.8451L197.202 48.6752L197.2 48.6711L196.729 48.8451ZM198.878 52.148C198.394 52.2128 197.927 52.1173 197.463 51.8425L196.941 52.7103C197.58 53.0882 198.265 53.2385 198.984 53.1423L198.878 52.148ZM197.451 51.8353C196.981 51.5759 196.565 51.1805 196.209 50.6307L195.37 51.194C195.8 51.8566 196.326 52.3707 196.954 52.7175L197.451 51.8353ZM196.214 50.639C195.424 49.3656 194.862 47.933 194.532 46.3369L193.556 46.5651C193.908 48.2664 194.51 49.8081 195.365 51.1857L196.214 50.639ZM194.528 46.32C194.156 44.7896 193.893 43.3056 193.738 41.8676L192.747 42.0002C192.906 43.4855 193.178 45.0128 193.56 46.5819L194.528 46.32ZM193.738 41.8676C193.71 41.6009 193.698 41.3896 193.701 41.2291L192.704 41.2374C192.701 41.4543 192.716 41.7101 192.747 42.0002L193.738 41.8676ZM193.698 41.1669L193.631 40.5405L192.64 40.6732L192.707 41.2996L193.698 41.1669ZM193.631 40.5405C193.624 40.4747 193.613 40.3916 193.588 40.315C193.578 40.2809 193.552 40.2069 193.496 40.1337C193.438 40.0581 193.281 39.9066 193.029 39.9403L193.136 40.9346C192.895 40.9668 192.749 40.8212 192.701 40.759C192.655 40.6991 192.639 40.6459 192.637 40.64C192.631 40.6199 192.635 40.623 192.64 40.6732L193.631 40.5405ZM193.578 40.3712L193.511 39.7448L192.519 39.8774L192.587 40.5038L193.578 40.3712ZM193.511 39.7519L193.285 37.3112L192.292 37.4296L192.519 39.8703L193.511 39.7519ZM193.285 37.3196C193.23 36.5925 193.196 35.4115 193.184 33.7671L192.187 33.8001C192.199 35.4471 192.234 36.6573 192.291 37.4212L193.285 37.3196ZM193.184 33.7692C193.18 32.6866 193.324 31.6185 193.616 30.5635L192.656 30.3174C192.339 31.4618 192.183 32.6225 192.187 33.7981L193.184 33.7692ZM193.621 30.5421C193.722 30.1054 193.865 29.817 194.021 29.6361L193.276 28.9896C192.973 29.3408 192.774 29.8041 192.651 30.3388L193.621 30.5421ZM194.037 29.6175C194.191 29.4211 194.351 29.3348 194.528 29.3111L194.421 28.3168C193.951 28.3798 193.56 28.6262 193.26 29.0082L194.037 29.6175ZM194.528 29.3111C195.39 29.1958 196.167 29.256 196.866 29.4801L197.19 28.5235C196.335 28.2496 195.41 28.1846 194.421 28.3168L194.528 29.3111ZM196.879 29.4838C197.583 29.689 198.19 30.0325 198.707 30.5149L199.395 29.7714C198.765 29.1835 198.024 28.7661 197.178 28.5197L196.879 29.4838ZM198.697 30.5055C199.178 30.9799 199.62 31.6015 200.017 32.3809L200.907 31.9049C200.472 31.0541 199.974 30.3425 199.405 29.7808L198.697 30.5055ZM200.019 32.3849C200.414 33.1414 200.728 33.9683 200.96 34.8673L201.926 34.5921C201.676 33.6258 201.336 32.7282 200.904 31.9009L200.019 32.3849ZM200.96 34.8656C201.197 35.7964 201.373 36.796 201.488 37.8654L202.479 37.7328C202.36 36.6213 202.176 35.5747 201.926 34.5937L200.96 34.8656ZM201.488 37.8654L201.518 38.1438L202.509 38.0112L202.479 37.7328L201.488 37.8654ZM201.518 38.1438C201.595 38.8681 201.677 39.523 201.764 40.1078L202.75 39.9355C202.666 39.3665 202.586 38.7252 202.509 38.0112L201.518 38.1438ZM201.762 40.0967L202.01 42.0757L202.999 41.9256L202.752 39.9466L201.762 40.0967ZM202.009 42.067C202.365 45.3849 202.237 47.8548 201.677 49.5234C201.399 50.351 201.022 50.9594 200.566 51.3811C200.114 51.7986 199.558 52.057 198.878 52.148L198.984 53.1423C199.853 53.026 200.609 52.6854 201.229 52.1122C201.845 51.5432 202.303 50.7692 202.62 49.8226C203.251 47.9431 203.361 45.298 203 41.9343L202.009 42.067ZM198.689 51.6993C199.248 51.6244 199.723 51.3346 200.105 50.8799L199.351 50.2436C199.109 50.5314 198.855 50.6685 198.582 50.705L198.689 51.6993ZM200.116 50.8664C200.486 50.3952 200.73 49.8164 200.865 49.1513L199.888 48.9746C199.778 49.5191 199.589 49.9395 199.34 50.2571L200.116 50.8664ZM200.86 49.1744C201.185 47.8813 201.318 46.5209 201.262 45.0956L200.266 45.1607C200.318 46.4978 200.193 47.7606 199.894 48.9515L200.86 49.1744ZM201.262 45.1107C201.251 43.9014 201.199 42.8556 201.104 41.9762L200.113 42.1088C200.203 42.9462 200.254 43.9576 200.265 45.1456L201.262 45.1107ZM201.104 41.9762C200.99 40.9096 200.759 39.5343 200.414 37.8551L199.437 38.082C199.779 39.7468 200.004 41.0873 200.113 42.1088L201.104 41.9762ZM200.415 37.8638C200.086 36.0985 199.876 34.7895 199.784 33.928L198.793 34.0607C198.889 34.9625 199.105 36.3029 199.436 38.0733L200.415 37.8638ZM199.784 33.928L199.717 33.3016L198.725 33.4343L198.793 34.0607L199.784 33.928ZM199.713 33.2756C199.555 32.2951 199.122 31.4695 198.414 30.8179L197.731 31.5657C198.273 32.0648 198.605 32.6899 198.729 33.4603L199.713 33.2756ZM198.422 30.825C197.722 30.1519 196.883 29.8584 195.937 29.9849L196.044 30.9792C196.671 30.8952 197.22 31.0749 197.724 31.5586L198.422 30.825ZM195.937 29.9849C195.443 30.051 195.011 30.256 194.682 30.6202C194.36 30.9767 194.173 31.4446 194.084 31.977L195.067 32.1193C195.135 31.7128 195.262 31.4503 195.412 31.2847C195.555 31.1269 195.752 31.0182 196.044 30.9792L195.937 29.9849ZM194.087 31.9586C193.919 32.7792 193.906 33.7796 194.031 34.9449L195.023 34.8123C194.904 33.7039 194.924 32.8174 195.063 32.1376L194.087 31.9586ZM194.031 34.9449C194.079 35.3932 194.132 35.7765 194.191 36.0918L195.171 35.8833C195.119 35.6016 195.069 35.2455 195.023 34.8123L194.031 34.9449ZM194.185 36.0539L194.286 36.9935L195.277 36.8608L195.177 35.9212L194.185 36.0539ZM194.284 36.9718L194.387 38.5819L195.382 38.4926L195.279 36.8825L194.284 36.9718ZM194.386 38.5561C194.392 39.068 194.427 39.6207 194.491 40.2137L195.482 40.081C195.421 39.514 195.388 38.9933 195.383 38.5184L194.386 38.5561ZM194.491 40.2137C194.626 41.4757 194.795 42.7216 194.998 43.9514L195.982 43.7628C195.782 42.5519 195.615 41.3247 195.482 40.081L194.491 40.2137ZM194.998 43.9498C195.281 45.7042 195.701 47.3941 196.257 49.0191L197.2 48.6711C196.663 47.1007 196.257 45.4652 195.982 43.7644L194.998 43.9498ZM196.256 49.015C196.54 49.8699 196.86 50.5478 197.231 51.0074C197.607 51.4721 198.096 51.7786 198.689 51.6993L198.582 50.705C198.458 50.7216 198.27 50.6832 198.011 50.3623C197.747 50.0362 197.472 49.4876 197.202 48.6752L196.256 49.015ZM211.25 48.9493L210.781 49.1322L210.782 49.1342L211.25 48.9493ZM209.998 44.4926L209.51 44.6087L209.512 44.6155L209.998 44.4926ZM208.665 37.6462L208.174 37.7442L208.175 37.7496L208.665 37.6462ZM207.556 31.8996L207.068 32.0124L207.069 32.0156L207.556 31.8996ZM206.612 28.6724L206.145 28.5094L206.06 28.7409L206.187 28.9461L206.612 28.6724ZM210.487 37.8967L210.003 38.0313L210.004 38.0318L210.487 37.8967ZM212.129 45.337L211.637 45.4251L212.627 45.3437L212.129 45.337ZM212.176 44.1306L211.678 44.1228L211.678 44.1238L212.176 44.1306ZM212.295 39.6668L211.797 39.6668L211.797 39.6741L212.295 39.6668ZM212.265 35.1172L211.766 35.1382L211.767 35.1474L212.265 35.1172ZM211.94 29.795L211.69 29.3677L211.41 29.5383L211.445 29.8614L211.94 29.795ZM212.832 29.2521L212.779 28.7549L212.674 28.769L212.582 28.8247L212.832 29.2521ZM213.587 29.3982L213.301 29.816L213.327 29.8342L213.356 29.8487L213.587 29.3982ZM213.996 30.2612L213.5 30.3276L213.508 30.3972L213.534 30.4616L213.996 30.2612ZM215.357 34.421L214.875 34.56L214.877 34.5681L215.357 34.421ZM216.599 39.7617L217.088 39.6525L217.087 39.6516L216.599 39.7617ZM217.566 44.1859L217.082 44.3174L218.064 44.1901L217.566 44.1859ZM216.987 29.9316L217.484 29.9534L217.485 29.9409L216.987 29.9316ZM216.95 27.2891L217.445 27.2228L217.437 27.1421L217.403 27.069L216.95 27.2891ZM218.415 25.8576L218.133 26.2782L218.133 26.2782L218.415 25.8576ZM218.77 27.8574L218.278 27.7906L218.267 27.8571L218.275 27.9237L218.77 27.8574ZM218.789 28.0314L219.277 28.122L219.293 28.0438L219.284 27.9651L218.789 28.0314ZM219.135 40.4459L219.633 40.4448L219.634 40.4393L219.135 40.4459ZM219.299 48.8607L218.81 48.7757L218.809 48.7814L219.299 48.8607ZM217.463 49.4594L217.093 49.8054L217.111 49.8243L217.13 49.8413L217.463 49.4594ZM215.711 41.3277L216.195 41.197L216.192 41.186L215.711 41.3277ZM214.615 37.3443L214.133 37.4848L214.135 37.4928L214.615 37.3443ZM213.668 33.7645L214.15 33.6241L213.17 33.7623L213.668 33.7645ZM214.017 40.9543L213.519 40.9773L214.017 40.9543ZM213.818 47.2996L214.314 47.3301L214.314 47.3299L213.818 47.2996ZM212.635 50.3777C212.681 50.3716 212.596 50.4177 212.383 50.1321C212.185 49.867 211.96 49.4218 211.718 48.7644L210.782 49.1342C211.036 49.8225 211.299 50.371 211.581 50.7477C211.847 51.104 212.233 51.4401 212.741 51.372L212.635 50.3777ZM211.719 48.7665C211.296 47.6031 210.884 46.1392 210.484 44.3697L209.512 44.6155C209.917 46.4096 210.339 47.9168 210.781 49.1322L211.719 48.7665ZM210.486 44.3765C210.105 42.5743 209.662 40.2968 209.156 37.5429L208.175 37.7496C208.682 40.5081 209.127 42.7948 209.51 44.6087L210.486 44.3765ZM209.156 37.5483C208.846 35.7473 208.475 33.8257 208.044 31.7836L207.069 32.0156C207.497 34.0474 207.866 35.9569 208.174 37.7442L209.156 37.5483ZM208.045 31.7867C207.87 30.932 207.702 30.2246 207.539 29.6686C207.38 29.1235 207.215 28.6864 207.036 28.3988L206.187 28.9461C206.292 29.1148 206.427 29.4436 206.582 29.9743C206.734 30.4939 206.896 31.172 207.068 32.0124L208.045 31.7867ZM207.079 28.8355C207.134 28.6846 207.204 28.5936 207.276 28.5355C207.347 28.4776 207.449 28.4293 207.604 28.4086L207.497 27.4143C207.19 27.4554 206.904 27.5649 206.663 27.7607C206.421 27.9563 206.253 28.2149 206.145 28.5094L207.079 28.8355ZM207.604 28.4086C207.699 28.3958 207.763 28.4105 207.815 28.4372C207.871 28.4661 207.943 28.5258 208.022 28.6508C208.188 28.9135 208.332 29.3847 208.412 30.126L209.403 29.9934C209.318 29.2035 209.154 28.5511 208.868 28.0977C208.72 27.8646 208.531 27.6682 208.289 27.5427C208.042 27.4152 207.772 27.3775 207.497 27.4143L207.604 28.4086ZM208.412 30.126C208.61 31.9711 209.143 34.6106 210.003 38.0313L210.97 37.7621C210.113 34.3528 209.593 31.7675 209.403 29.9934L208.412 30.126ZM210.004 38.0318C210.86 41.422 211.402 43.8823 211.637 45.4251L212.622 45.2488C212.38 43.655 211.827 41.1551 210.97 37.7617L210.004 38.0318ZM212.627 45.3437L212.674 44.1373L211.678 44.1238L211.631 45.3303L212.627 45.3437ZM212.674 44.1384C212.739 42.5486 212.779 41.0557 212.794 39.6595L211.797 39.6741C211.782 41.0589 211.742 42.5417 211.678 44.1228L212.674 44.1384ZM212.794 39.6668C212.83 38.2386 212.819 36.7119 212.763 35.087L211.767 35.1474C211.822 36.755 211.832 38.2614 211.797 39.6668L212.794 39.6668ZM212.763 35.0962C212.733 33.2734 212.624 31.4842 212.436 29.7287L211.445 29.8614C211.63 31.5859 211.737 33.3448 211.766 35.1382L212.763 35.0962ZM212.19 30.2224L213.082 29.6795L212.582 28.8247L211.69 29.3677L212.19 30.2224ZM212.885 29.7492C213.094 29.7213 213.218 29.7597 213.301 29.816L213.873 28.9804C213.551 28.7614 213.172 28.7024 212.779 28.7549L212.885 29.7492ZM213.356 29.8487C213.414 29.8772 213.456 29.9156 213.471 30.0492L214.462 29.9165C214.416 29.4933 214.206 29.1419 213.817 28.9478L213.356 29.8487ZM213.471 30.0492L213.5 30.3276L214.492 30.1949L214.462 29.9165L213.471 30.0492ZM213.534 30.4616C214.034 31.6884 214.481 33.0541 214.875 34.56L215.839 34.282C215.437 32.7409 214.977 31.3335 214.458 30.0609L213.534 30.4616ZM214.877 34.5681C215.291 36.0497 215.702 37.8169 216.11 39.8717L217.087 39.6516C216.677 37.5798 216.26 35.7866 215.837 34.2739L214.877 34.5681ZM216.109 39.8708C216.421 41.4595 216.745 42.9418 217.082 44.3174L218.05 44.0545C217.718 42.6956 217.397 41.2283 217.088 39.6525L216.109 39.8708ZM218.064 44.1901C218.171 40.991 217.978 37.1085 217.489 32.5473L216.497 32.6799C216.984 37.2132 217.172 41.0456 217.068 44.1818L218.064 44.1901ZM217.489 32.5473C217.416 31.8674 217.412 31.0051 217.484 29.9534L216.49 29.9099C216.415 30.9956 216.416 31.9214 216.497 32.6799L217.489 32.5473ZM217.485 29.9409C217.533 28.8399 217.521 27.9309 217.445 27.2228L216.454 27.3554C216.523 27.9929 216.536 28.8456 216.489 29.9224L217.485 29.9409ZM217.403 27.069C217.33 26.9091 217.291 26.7684 217.278 26.6451L216.287 26.7777C216.313 27.0256 216.386 27.27 216.497 27.5092L217.403 27.069ZM217.278 26.6451C217.26 26.4764 217.302 26.4224 217.327 26.397C217.371 26.3518 217.493 26.2734 217.787 26.2341L217.68 25.2398C217.28 25.2933 216.897 25.4238 216.624 25.7034C216.332 26.0028 216.245 26.3896 216.287 26.7777L217.278 26.6451ZM217.787 26.2341C217.982 26.2079 218.081 26.2434 218.133 26.2782L218.697 25.4369C218.396 25.2366 218.04 25.1917 217.68 25.2398L217.787 26.2341ZM218.133 26.2782C218.166 26.3004 218.211 26.3421 218.226 26.483L219.217 26.3503C219.177 25.9808 219.017 25.6497 218.697 25.4369L218.133 26.2782ZM218.226 26.483L218.282 27.005L219.273 26.8724L219.217 26.3503L218.226 26.483ZM218.282 27.005C218.316 27.3218 218.311 27.5816 218.278 27.7906L219.262 27.9242C219.313 27.6042 219.313 27.2515 219.273 26.8724L218.282 27.005ZM218.275 27.9237L218.293 28.0977L219.284 27.9651L219.266 27.7911L218.275 27.9237ZM218.301 27.9408C218.087 28.9714 218.052 30.1129 218.186 31.3597L219.177 31.2271C219.052 30.061 219.088 29.0279 219.277 28.122L218.301 27.9408ZM218.186 31.3597L218.458 33.9001L219.449 33.7675L219.177 31.2271L218.186 31.3597ZM218.458 33.9001C218.612 35.3309 218.673 37.5105 218.637 40.4525L219.634 40.4393C219.669 37.4884 219.609 35.2599 219.449 33.7675L218.458 33.9001ZM218.637 40.447C218.57 43.3311 218.611 45.4942 218.764 46.9202L219.755 46.7876C219.609 45.4295 219.567 43.3206 219.633 40.4448L218.637 40.447ZM218.764 46.9202L218.831 47.5466L219.822 47.414L219.755 46.7876L218.764 46.9202ZM218.831 47.5466C218.885 48.0472 218.873 48.4537 218.81 48.7757L219.788 48.9457C219.876 48.4943 219.883 47.9806 219.822 47.414L218.831 47.5466ZM218.809 48.7814C218.781 48.9318 218.728 49.0104 218.674 49.0587C218.616 49.1107 218.51 49.168 218.314 49.1942L218.421 50.1885C218.757 50.1435 219.072 50.0268 219.324 49.8019C219.581 49.5733 219.727 49.2722 219.789 48.94L218.809 48.7814ZM218.314 49.1942C218.055 49.2288 217.903 49.172 217.795 49.0775L217.13 49.8413C217.488 50.1551 217.939 50.2529 218.421 50.1885L218.314 49.1942ZM217.832 49.1133C217.702 48.9725 217.611 48.7758 217.58 48.4906L216.589 48.6232C216.638 49.0804 216.798 49.4854 217.093 49.8054L217.832 49.1133ZM217.58 48.4906C217.375 46.5807 216.912 44.1474 216.195 41.197L215.226 41.4584C215.938 44.3885 216.391 46.7747 216.589 48.6232L217.58 48.4906ZM216.192 41.186C215.839 39.8659 215.473 38.5359 215.095 37.1958L214.135 37.4928C214.513 38.8284 214.877 40.154 215.229 41.4695L216.192 41.186ZM215.097 37.2038L214.15 33.6241L213.186 33.905L214.133 37.4847L215.097 37.2038ZM213.17 33.7623C213.149 34.4694 213.174 35.1597 213.246 35.833L214.238 35.7004C214.17 35.0745 214.147 34.4301 214.166 33.7668L213.17 33.7623ZM213.246 35.833C213.384 37.1117 213.475 38.8246 213.519 40.9773L214.515 40.9313C214.471 38.7656 214.379 37.0202 214.238 35.7004L213.246 35.833ZM213.519 40.9773C213.562 43.1195 213.496 45.2168 213.321 47.2694L214.314 47.3299C214.493 45.2404 214.56 43.1075 214.515 40.9313L213.519 40.9773ZM213.321 47.2692C213.223 48.4125 213.083 49.2432 212.912 49.7845C212.826 50.0566 212.742 50.2245 212.673 50.3179C212.607 50.4081 212.59 50.3837 212.635 50.3777L212.741 51.372C213.063 51.329 213.302 51.1277 213.469 50.9014C213.633 50.6783 213.759 50.39 213.862 50.0662C214.067 49.4158 214.214 48.496 214.314 47.3301L213.321 47.2692Z" fill="#FBC700"/>
<g clip-path="url(#clip0)">
<path d="M97.8348 77.8642C97.9004 77.9697 97.9699 78.0724 98.043 78.1721C97.9688 78.0724 97.8986 77.9697 97.8348 77.8642Z" fill="#FDD79B"/>
<path d="M146.016 78.1721C146.089 78.0724 146.159 77.9697 146.224 77.8642C146.16 77.9697 146.091 78.0724 146.016 78.1721Z" fill="#FDD79B"/>
<path d="M149.998 31.9576C151.481 30.5202 152.068 28.2948 151.316 26.2294C150.639 24.3681 149.045 23.107 147.23 22.7672C146.934 22.7121 146.76 22.41 146.859 22.1253C147.473 20.3835 147.178 18.3726 145.905 16.8558C144.632 15.3384 142.702 14.6982 140.881 14.9997C140.583 15.049 140.316 14.8246 140.312 14.5237C140.293 12.6769 139.328 10.8881 137.613 9.89778C135.897 8.90742 133.866 8.96599 132.257 9.87285C131.995 10.0207 131.666 9.90126 131.56 9.61946C130.911 7.8904 129.392 6.53996 127.442 6.19612C125.491 5.8517 123.602 6.602 122.4 8.00404C122.204 8.23308 121.855 8.23308 121.659 8.00404C120.457 6.602 118.568 5.85228 116.617 6.19612C114.667 6.53996 113.148 7.8904 112.499 9.61946C112.393 9.90126 112.065 10.0207 111.802 9.87285C110.193 8.96599 108.162 8.90742 106.447 9.89778C104.731 10.8881 103.766 12.6769 103.747 14.5237C103.743 14.8246 103.476 15.049 103.179 14.9997C101.357 14.6982 99.4277 15.3384 98.1549 16.8558C96.8816 18.3726 96.5865 20.3835 97.1999 22.1253C97.2997 22.41 97.1257 22.7121 96.8294 22.7672C95.014 23.107 93.42 24.3681 92.7428 26.2294C91.9907 28.2953 92.5792 30.5207 94.0613 31.9576H149.998Z" fill="#FBC700"/>
<path d="M151.351 26.2183C150.777 24.513 148.988 23.0948 147.229 22.7677C146.933 22.7127 146.759 22.4094 146.859 22.1253C147.473 20.3835 147.178 18.372 145.905 16.8558C144.631 15.3383 142.702 14.6976 140.881 14.9991C140.584 15.0484 140.316 14.8252 140.313 14.5237C140.294 12.6775 139.327 10.8881 137.614 9.89775C135.898 8.90797 133.866 8.96595 132.258 9.87281C131.995 10.0213 131.666 9.90065 131.561 9.61827C130.911 7.89094 129.392 6.53993 127.442 6.19493C125.649 5.88008 123.91 6.48774 122.706 7.67582C123.299 7.58653 123.917 7.59117 124.54 7.70076C126.507 8.04808 128.484 9.68437 129.535 11.3352C130.268 12.4873 131.492 12.4826 132.706 12.3017C133.525 12.18 134.381 12.0623 135.203 12.2211C136.039 12.3818 137.01 12.6636 137.447 13.4144C137.806 14.0302 137.974 14.7463 138.065 15.4468C138.25 16.861 138.968 16.836 140.195 16.9479C142.503 17.1578 145.036 18.8788 144.518 21.4614C144.327 22.4129 144.068 23.2739 144.613 24.1698C145.298 25.2958 146.709 25.4025 147.568 26.3134C148.344 27.1362 148.167 28.3863 147.119 28.8682C146.481 29.1616 145.733 29.1175 145.05 29.1001C143.567 29.063 142.078 29.1279 140.595 29.1279C135.162 29.1279 129.729 29.1279 124.296 29.1279C118.303 29.1279 112.31 29.1279 106.317 29.1279C102.253 29.1279 98.1897 29.1279 94.1256 29.1279C94.0375 29.1279 92.5288 29.1766 92.5189 29.1279C92.7329 30.1995 93.2698 31.191 94.0619 31.9569H149.997C150.424 31.9569 151.11 30.4384 151.245 30.1079C151.546 29.3663 151.681 28.5591 151.634 27.7601C151.601 27.1983 151.509 26.688 151.351 26.2183Z" fill="#E9B900"/>
<path d="M122.03 40.2051H92.1548L97.2591 76.2575C97.5536 78.3385 99.3355 79.8855 101.437 79.8855H142.622C144.724 79.8855 146.506 78.3385 146.8 76.2575L151.904 40.2051H122.03Z" fill="#FDD79B"/>
<path d="M151.904 40.2051L151.378 43.9184H92.6813L92.1548 40.2051H151.904Z" fill="#FCCD7F"/>
<path d="M103.992 40.2051L107.236 79.8843H101.437C99.3355 79.8843 97.5536 78.3373 97.2591 76.2563L92.1548 40.2051H103.992Z" fill="#EA4444"/>
<path d="M115.859 40.2051H128.2L126.707 79.8843H117.353L115.859 40.2051Z" fill="#EA4444"/>
<path d="M104.295 43.9184H92.6813L92.1548 40.2051H103.992L104.295 43.9184Z" fill="#D93131"/>
<path d="M128.2 40.2051L128.06 43.9184H115.999L115.86 40.2051H128.2Z" fill="#D93131"/>
<path d="M151.905 40.2051L146.8 76.2563C146.506 78.3373 144.724 79.8843 142.622 79.8843H136.823L140.068 40.2051H151.905Z" fill="#EA4444"/>
<path d="M151.904 40.2051L151.378 43.9184H139.764L140.068 40.2051H151.904Z" fill="#D93131"/>
<path d="M151.904 40.2052H92.1548C91.0537 40.2052 90.1613 39.3128 90.1613 38.2117V33.9511C90.1613 32.85 91.0537 31.957 92.1548 31.957H151.904C153.005 31.957 153.898 32.85 153.898 33.9511V38.2117C153.898 39.3128 153.005 40.2052 151.904 40.2052Z" fill="#FEF1DA"/>
<path d="M152.134 30.8542C152.861 29.3095 152.968 27.5074 152.364 25.8479C151.659 23.9112 150.061 22.4216 148.105 21.8343C148.326 20.9083 148.341 19.9428 148.149 19.007C148.025 18.404 147.434 18.0149 146.832 18.1396C146.229 18.2636 145.84 18.8533 145.965 19.4564C146.122 20.2217 146.068 21.0167 145.808 21.7554C145.652 22.1978 145.697 22.6843 145.931 23.0896C146.165 23.4949 146.564 23.7767 147.026 23.8631C148.511 24.1408 149.754 25.1938 150.269 26.6104C150.797 28.0611 150.498 29.6771 149.515 30.8426H94.5443C93.5609 29.6771 93.2623 28.0611 93.7905 26.6104C94.306 25.1938 95.5491 24.1408 97.0341 23.8631C97.4956 23.7767 97.8946 23.4949 98.1288 23.0896C98.3625 22.6843 98.4071 22.1984 98.2512 21.7554C97.7496 20.3296 98.0395 18.7269 99.009 17.5719C99.9779 16.4169 101.506 15.8527 102.997 16.0997C103.46 16.1768 103.931 16.0481 104.29 15.7472C104.648 15.4468 104.857 15.005 104.861 14.5353C104.878 13.0243 105.698 11.617 107.004 10.8632C108.31 10.1094 109.938 10.1025 111.255 10.8441C111.664 11.0743 112.151 11.1149 112.59 10.9548C113.031 10.7948 113.377 10.451 113.543 10.0115C114.074 8.59666 115.327 7.55586 116.811 7.29377C118.297 7.03227 119.829 7.58195 120.812 8.72944C121.118 9.08604 121.562 9.29014 122.03 9.29014C122.497 9.29014 122.942 9.08604 123.247 8.72944C124.23 7.58195 125.764 7.03227 127.248 7.29377C128.733 7.55586 129.985 8.59724 130.517 10.0115C130.682 10.451 131.029 10.7948 131.469 10.9548C131.909 11.1149 132.395 11.0743 132.805 10.8441C134.121 10.1025 135.75 10.1094 137.056 10.8632C138.362 11.617 139.182 13.0243 139.198 14.5353C139.203 15.005 139.412 15.4468 139.77 15.7472C140.129 16.0481 140.6 16.1757 141.063 16.0997C141.861 15.9669 142.678 16.062 143.424 16.3728C143.992 16.61 144.644 16.3415 144.882 15.7733C145.119 15.205 144.851 14.5521 144.282 14.315C143.363 13.9317 142.374 13.7641 141.384 13.8233C141.144 11.795 139.956 9.96275 138.17 8.93238C136.386 7.90202 134.204 7.78837 132.328 8.5955C131.41 6.77134 129.665 5.4557 127.635 5.09794C125.605 4.7396 123.517 5.37974 122.03 6.77946C120.543 5.37974 118.454 4.7396 116.424 5.09794C114.394 5.4557 112.65 6.77134 111.732 8.5955C109.856 7.78837 107.675 7.90144 105.889 8.93238C104.104 9.96275 102.915 11.7956 102.676 13.8239C100.636 13.7079 98.6257 14.5597 97.3014 16.1386C95.9759 17.7174 95.4854 19.8466 95.9544 21.8343C93.9987 22.4216 92.4006 23.9107 91.6956 25.8479C91.0914 27.5068 91.1992 29.3089 91.9258 30.8542C90.319 30.9725 89.0469 32.3142 89.0469 33.9511V38.2117C89.0469 39.5783 89.9346 40.7392 91.1633 41.1549L94.3605 63.7325C94.4469 64.3419 95.0105 64.7669 95.6205 64.6799C96.2299 64.5935 96.6543 64.0294 96.5679 63.4194L93.4385 41.3202H102.965L106.027 78.7693H101.437C99.9002 78.7693 98.5788 77.6218 98.3631 76.0998L97.2933 68.5457C97.2069 67.9363 96.6433 67.5113 96.0333 67.5982C95.4233 67.6846 94.9995 68.2488 95.0858 68.8588L96.1556 76.4129V76.4135C96.5256 79.0279 98.7962 80.9999 101.437 80.9999H142.622C145.263 80.9999 147.534 79.0279 147.904 76.4135L148.276 73.7822L152.896 41.1549C154.125 40.7398 155.013 39.5783 155.013 38.2117V33.9511C155.013 32.3148 153.741 30.9725 152.134 30.8542ZM91.2763 33.9511C91.2763 33.4663 91.6706 33.072 92.1554 33.072H151.904C152.389 33.072 152.783 33.4663 152.783 33.9511V38.2117C152.783 38.6964 152.389 39.0901 151.904 39.0901H92.1548C91.6706 39.0901 91.2763 38.6964 91.2763 38.2117V33.9511ZM127.864 78.7705L129.274 41.3202H138.858L135.795 78.7705H127.864ZM127.043 41.3202L125.633 78.7693H118.426L117.016 41.3202H127.043ZM145.696 76.1003C145.481 77.6218 144.16 78.7693 142.622 78.7693H138.032L141.095 41.3202H150.621L146.056 73.5624L145.696 76.1003ZM105.202 41.3202H114.785L116.195 78.7705H108.264L105.202 41.3202Z" fill="black"/>
<path d="M137.065 21.5861C135.406 20.6282 133.384 20.5117 131.634 21.2399C130.761 19.5573 129.138 18.3466 127.252 18.0143C125.365 17.6815 123.425 18.2636 122.03 19.5462C120.634 18.2636 118.694 17.6815 116.808 18.0143C114.922 18.3466 113.298 19.5573 112.425 21.2399C110.675 20.5122 108.653 20.6282 106.994 21.5861C105.126 22.6646 103.951 24.6766 103.928 26.8371C103.922 27.4528 104.416 27.9573 105.032 27.9637H105.043C105.654 27.9637 106.152 27.472 106.158 26.8603C106.172 25.4843 106.92 24.2035 108.109 23.5169C109.298 22.8304 110.781 22.8235 111.98 23.499C112.381 23.7251 112.857 23.7639 113.287 23.6074C113.717 23.4508 114.057 23.1145 114.218 22.6843C114.702 21.3965 115.843 20.4479 117.195 20.2096C118.548 19.9713 119.943 20.4722 120.839 21.5171C121.138 21.8661 121.572 22.0656 122.03 22.0656C122.488 22.0656 122.921 21.8656 123.221 21.5171C124.116 20.4722 125.513 19.9718 126.864 20.2096C128.216 20.4479 129.357 21.3965 129.841 22.6843C130.003 23.1145 130.342 23.4508 130.772 23.6074C131.203 23.7639 131.679 23.7245 132.079 23.499C133.278 22.8235 134.761 22.8304 135.95 23.5169C137.139 24.2035 137.887 25.4843 137.901 26.8603C137.908 27.472 138.405 27.9637 139.016 27.9637H139.027C139.643 27.9573 140.137 27.4528 140.131 26.8371C140.108 24.6766 138.933 22.6646 137.065 21.5861Z" fill="black"/>
</g>
<defs>
<clipPath id="clip0">
<rect width="76" height="76" fill="white" transform="translate(84 4.99994)"/>
</clipPath>
</defs>
</svg>
